<?xml version="1.0" encoding="UTF-8"?>
<svg width="48px" height="48px" viewBox="0 0 48 48" version="1.1" xmlns="http://www.w3.org/2000/svg" xmlns:xlink="http://www.w3.org/1999/xlink">
    <title>TFCA-logomark-pos-sRGB</title>
    <g id="Colors" stroke="none" stroke-width="1" fill="none" fill-rule="evenodd">
        <g id="blue-copy-13" transform="translate(-12.000000, -10.000000)" fill-rule="nonzero">
            <g id="Group-23" transform="translate(-1.000000, 0.000000)">
                <g id="TFCA-logomark-pos-sRGB" transform="translate(13.000000, 10.000000)">
                    <path d="M24.0026492,8.95123093 C23.6501981,8.95263854 23.3117728,8.81325533 23.0625502,8.56403271 C22.8133276,8.31481009 22.6739444,7.97638486 22.675352,7.6239337 L22.675352,1.32728651 C22.675352,0.594246411 23.2696091,0 24.0026492,0 C24.7356893,0 25.3299357,0.594246411 25.3299357,1.32728651 L25.3299357,7.6239337 C25.3299357,7.97595197 25.190097,8.31355249 24.9411825,8.56246699 C24.692268,8.8113815 24.3546675,8.95123093 24.0026492,8.95123093 Z" id="Path" fill-opacity="0.418542395" fill="#FFFFFF"></path>
                    <path d="M24.0026492,48 C23.6501981,48.0014076 23.3117728,47.8620244 23.0625502,47.6128018 C22.8133276,47.3635792 22.6739444,47.0251539 22.675352,46.6727028 L22.675352,40.3760556 C22.675352,39.6430155 23.2696091,39.0487691 24.0026492,39.0487691 C24.7356893,39.0487691 25.3299357,39.6430155 25.3299357,40.3760556 L25.3299357,46.6727028 C25.3299357,47.024721 25.190097,47.3623216 24.9411825,47.6112361 C24.692268,47.8601506 24.3546675,48 24.0026492,48 Z" id="Path" fill-opacity="0.418542395" fill="#FFFFFF"></path>
                    <path d="M31.5257091,10.9686957 C31.2196956,10.7931177 30.9961767,10.5029303 30.9045281,10.1622363 C30.8128794,9.82154226 30.8606429,9.45837828 31.0372677,9.15296776 L34.1855913,3.71640222 C34.5545846,3.08698489 35.362426,2.87340459 35.9942771,3.2382147 C36.6261282,3.60302481 36.8450624,4.40943165 36.4844515,5.04368873 L33.3361279,10.4802543 C33.1615764,10.7859071 32.8723389,11.0093297 32.5325069,11.1010146 C32.1926749,11.1926995 31.8303106,11.1450756 31.5257091,10.9686957 L31.5257091,10.9686957 Z" id="Path" fill-opacity="0.418542395" fill="#FFFFFF"></path>
                    <path d="M16.4583527,10.9686957 C16.1537512,11.1450756 15.7913869,11.1926995 15.4515549,11.1010146 C15.1117229,11.0093297 14.8224855,10.7859071 14.6479339,10.4802543 L11.5155377,5.02776129 C11.2487872,4.40806718 11.4893594,3.68685358 12.0747168,3.35139356 C12.6600741,3.01593355 13.4039585,3.17296903 13.8037797,3.71640222 L16.9892673,9.15296776 C17.1625026,9.46355497 17.2038517,9.83067081 17.1040445,10.1720114 C17.0042373,10.513352 16.7716234,10.8003617 16.4583527,10.9686957 L16.4583527,10.9686957 Z" id="Path" fill-opacity="0.418542395" fill="#FFFFFF"></path>
                    <path d="M36.0013192,44.7826468 C35.6968919,44.9611607 35.3337258,45.0105432 34.9926853,44.9197985 C34.6516449,44.8290538 34.3610446,44.6057159 34.1855913,44.2995145 L31.0372677,38.8470215 C30.7963859,38.4361329 30.794131,37.9276772 31.0313588,37.5146682 C31.2685866,37.1016592 31.7089233,36.8474233 32.1852135,36.8484671 C32.6615038,36.8495174 33.1007183,37.1056869 33.3361279,37.519735 L36.4844515,42.972228 C36.8495966,43.6057565 36.6335644,44.415284 36.0013192,44.7826468 L36.0013192,44.7826468 Z" id="Path" fill-opacity="0.418542395" fill="#FFFFFF"></path>
                    <path d="M10.9686957,16.4583527 C10.7931177,16.7643662 10.5029303,16.9878851 10.1622363,17.0795338 C9.82154226,17.1711825 9.45837828,17.1234189 9.15296776,16.9467941 L3.71640222,13.8037797 C3.08698489,13.4347864 2.87340459,12.626945 3.2382147,11.9950939 C3.60302481,11.3632428 4.40943165,11.1443086 5.04368873,11.5049195 L10.4961817,14.653243 C11.1239114,15.0221522 11.3351672,15.8291967 10.9686957,16.4583527 L10.9686957,16.4583527 Z" id="Path" fill-opacity="0.418542395" fill="#FFFFFF"></path>
                    <path d="M44.7826468,36.0013192 C44.415284,36.6335644 43.6057565,36.8495966 42.972228,36.4844515 L37.519735,33.3361279 C37.1056869,33.1007183 36.8495174,32.6615038 36.8484671,32.1852135 C36.8474233,31.7089233 37.1016592,31.2685866 37.5146682,31.0313588 C37.9276772,30.794131 38.4361329,30.7963859 38.8470215,31.0372677 L44.2995145,34.1855913 C44.6057159,34.3610446 44.8290538,34.6516449 44.9197985,34.9926853 C45.0105432,35.3337258 44.9611607,35.6968919 44.7826468,36.0013192 Z" id="Path" fill-opacity="0.418542395" fill="#FFFFFF"></path>
                    <path d="M8.95123093,24.0026492 C8.95123093,24.7356893 8.3569738,25.3299357 7.6239337,25.3299357 L1.32728651,25.3299357 C0.594246411,25.3299357 0,24.7356893 0,24.0026492 C0,23.2696091 0.594246411,22.675352 1.32728651,22.675352 L7.6239337,22.675352 C7.97638486,22.6739444 8.31481009,22.8133276 8.56403271,23.0625502 C8.81325533,23.3117728 8.95263854,23.6501981 8.95123093,24.0026492 L8.95123093,24.0026492 Z" id="Path" fill-opacity="0.418542395" fill="#FFFFFF"></path>
                    <path d="M48,24.0026492 C48,24.7356893 47.4057429,25.3299357 46.6727028,25.3299357 L40.3760556,25.3299357 C39.6430155,25.3299357 39.0487691,24.7356893 39.0487691,24.0026492 C39.0487691,23.2696091 39.6430155,22.675352 40.3760556,22.675352 L46.6727028,22.675352 C47.0251539,22.6739444 47.3635792,22.8133276 47.6128018,23.0625502 C47.8620244,23.3117728 48.0014076,23.6501981 48,24.0026492 L48,24.0026492 Z" id="Path" fill-opacity="0.418542395" fill="#FFFFFF"></path>
                    <path d="M10.9686957,31.5257091 C11.1450756,31.8303106 11.1926995,32.1926749 11.1010146,32.5325069 C11.0093297,32.8723389 10.7859071,33.1615764 10.4802543,33.3361279 L5.02776129,36.4844515 C4.40088274,36.7801947 3.65198937,36.5437727 3.30854578,35.9417036 C2.96510218,35.3396345 3.14276518,34.5746688 3.71640222,34.1855913 L9.1688952,31.0372677 C9.80141486,30.6801879 10.6034736,30.8978557 10.9686957,31.5257091 L10.9686957,31.5257091 Z" id="Path" fill-opacity="0.418542395" fill="#FFFFFF"></path>
                    <path d="M44.7826468,11.99867 C45.1473187,12.630601 44.9310893,13.4384913 44.2995145,13.8037797 L38.8470215,16.9892673 C38.4361329,17.2301491 37.9276772,17.232404 37.5146682,16.9951762 C37.1016592,16.7579484 36.8474233,16.3176117 36.8484671,15.8413215 C36.8495174,15.3650312 37.1056869,14.9258167 37.519735,14.6904071 L42.972228,11.5420835 C43.598844,11.1723595 44.4063114,11.3760023 44.7826468,11.99867 L44.7826468,11.99867 Z" id="Path" fill-opacity="0.418542395" fill="#FFFFFF"></path>
                    <path d="M14.7328802,44.4375523 L10.9474591,42.2501841 C10.7888572,42.1581345 10.6734073,42.006752 10.6265916,41.82945 C10.5797759,41.6521481 10.6054436,41.4635042 10.6979293,41.3051561 L13.416212,36.9994387 C13.6100879,36.6690175 14.033364,36.5555133 14.3665492,36.7445997 L17.8121849,38.756766 C18.1215257,38.9545638 18.2257559,39.3575872 18.0510965,39.6805574 L15.6619808,44.1827133 C15.4707822,44.503136 15.060799,44.6155886 14.7328802,44.4375523 L14.7328802,44.4375523 Z" id="Path" fill="#FDFAF5"></path>
                    <path d="M31.7964756,19.776569 C31.9213805,19.576812 31.9213805,19.323301 31.7964756,19.123544 C31.3823622,18.4386642 30.2939873,17.5838917 28.3349124,16.468971 C26.3758375,15.3540503 25.0538601,14.8072083 24.2627974,14.8018991 C24.0381547,14.8035653 23.8332668,14.9305957 23.7318828,15.1310662 L16.5220625,33.2617999 C16.3933541,33.5258712 16.4850466,33.8445027 16.7344283,33.9997712 L18.8580867,35.2208748 C19.118143,35.3522196 19.4350634,35.275799 19.6066763,35.0403638 L31.7964756,19.776569 Z" id="Path" fill="#FDFAF5"></path>
                </g>
            </g>
        </g>
    </g>
</svg>