<svg height="53" viewBox="0 0 53 53" width="53" xmlns="http://www.w3.org/2000/svg"><g fill="#1f335e"><g fill-opacity=".301437"><path d="m26.5000066 9.73469388c-.4308277.00153081-.8445104-.15005201-1.149154-.42108803-.3046436-.27103601-.4750222-.63908214-.4733016-1.02238185v-6.84776578c0-.79719996.7264053-1.44345822 1.6224556-1.44345822.8960502 0 1.6224424.64625826 1.6224424 1.44345822v6.84776578c0 .38282892-.1709354.74997817-.4752024 1.0206791-.304267.27070092-.7169416.42279078-1.14724.42279078z"/><path d="m26.5000066 53c-.4308277.0015308-.8445104-.150052-1.149154-.421088s-.4750222-.6390822-.4733016-1.0223819v-6.8477658c0-.7971999.7264053-1.4434582 1.6224556-1.4434582.8960502 0 1.6224424.6462583 1.6224424 1.4434582v6.8477658c0 .3828289-.1709354.7499782-.4752024 1.0206791s-.7169416.4227908-1.14724.4227908z"/><path d="m34.276766 11.7075322c-.342457-.1878798-.5925949-.4983991-.6951581-.8629638s-.0491115-.7531736.1485477-1.07998266l3.5232603-5.81747713c.4129371-.6735173 1.316985-.90206205 2.0240838-.51169162.7070988.39037044.9521061 1.25327797.5485498 1.93197412l-3.5232603 5.81747709c-.1953391.3270684-.5190221.566145-.899325.6642538s-.7858215.0471481-1.1266982-.1415898z"/><path d="m18.6804407 11.7047751c-.3437794.1914705-.7527513.2431691-1.1362926.1436398-.3835414-.0995292-.7099806-.3420674-.9069831-.6738713l-3.5352864-5.91899674c-.3010602-.67271382-.0295454-1.45563294.6311009-1.81979421.6606462-.36416126 1.5002093-.19369016 1.9514558.39623803l3.5952065 5.9017066c.1955169.33716042.2421843.73568592.1295399 1.10623092-.1126445.3705449-.3751772.6821106-.728741.8648469z"/><path d="m39.2820393 49.5614733c-.3402227.1903318-.7460909.2429834-1.1272318.1462313s-.7059107-.3348752-.9019943-.6613475l-3.5185119-5.813455c-.2692053-.43809-.2717254-.9802061-.0066037-1.4205568.2651218-.4403508.7572343-.7114174 1.289528-.7103045.5322938.0011198 1.0231523.2742481 1.2862421.7157067l3.5185118 5.813455c.4080799.6754688.1666459 1.5385882-.5399402 1.9302708z"/><path d="m11.7055333 18.7225503c-.1878355.3427707-.4982815.5931379-.86276.6957951s-.7529957.0491564-1.07972756-.1486838l-5.816103-3.520542c-.67335821-.4133154-.90184898-1.3181918-.51157075-2.0259385.39027823-.7077468 1.25298194-.9529786 1.93151777-.5490525l5.83314234 3.5264888c.6715528.4132213.8975567 1.317205.5055012 2.0219329z"/><path d="m49.5614733 39.2820393c-.3916826.7065861-1.254802.9480201-1.9302708.5399402l-5.813455-3.5185118c-.4414586-.2630898-.7145869-.7539483-.7157067-1.2862421-.0011129-.5322937.2699537-1.0244062.7103045-1.289528.4403507-.2651217.9824668-.2626016 1.4205568.0066037l5.813455 3.5185119c.3264723.1960836.5645954.5208534.6613475.9019943s.0441005.7870091-.1462313 1.1272318z"/><path d="m9.73469388 26.5000066c0 .8960502-.64626992 1.6224424-1.44346988 1.6224424h-6.84776578c-.79719996 0-1.44345822-.7263922-1.44345822-1.6224424 0-.8960503.64625826-1.6224556 1.44345822-1.6224556h6.84776578c.38329971-.0017206.75134584.168658 1.02238185.4733016.27103602.3046436.42261884.7183263.42108803 1.149154z"/><path d="m53 26.5000066c0 .8960502-.6462699 1.6224424-1.4434699 1.6224424h-6.8477658c-.7971999 0-1.4434582-.7263922-1.4434582-1.6224424 0-.8960503.6462583-1.6224556 1.4434582-1.6224556h6.8477658c.3832997-.0017206.7513459.168658 1.0223819.4733016s.4226188.7183263.421088 1.149154z"/><path d="m11.7057772 34.276189c.1904773.3440333.2419077.7533072.1428947 1.1371319-.0990129.3838246-.3402929.710505-.6703755.907653l-5.88829168 3.555887c-.67698276.3340284-1.48573255.0670006-1.85662639-.6130089-.37089384-.6800094-.17903086-1.544003.44045498-1.9834482l5.88829166-3.555887c.68307473-.4033053 1.54923913-.1574594 1.94365223.5516722z"/><path d="m49.5660737 13.6950527c.3890252.7054093.1583557 1.6072379-.5153963 2.0150006l-5.8166165 3.5558835c-.4383282.2688906-.9807391.2714077-1.4213294.006596-.4405902-.2648118-.7118042-.756349-.7106907-1.2880204.0011205-.5316714.2743973-1.021956.7160959-1.2847381l5.8166165-3.5143982c.6684621-.412714 1.5298531-.1853925 1.9313205.5096766z"/></g><path d="m16.6418084 48.5806772-4.3489382-2.4053902c-.1822122-.1012245-.3148486-.2676958-.3686335-.46267s-.0242962-.4024209.0819573-.576552l3.1229402-4.7348822c.2227373-.3633554.7090244-.4881729 1.0918092-.2802397l3.9585707 2.2127255c.3553908.2175129.4751372.660707.2744772 1.0158687l-2.7447717 4.9509003c-.2196614.3523603-.6906768.4760214-1.0674112.2802396z"/><path d="m35.5887822 21.7410996c.1401271-.2215185.1401271-.502647 0-.7241655-.4645817-.7594905-1.6855975-1.7073818-3.8834259-2.9437618-2.1978285-1.23638-3.680916-1.842795-4.5683861-1.8486825-.25202.0018476-.4818777.1427168-.5956174.3650265l-8.0884853 20.1058937c-.1443942.2928392-.041527.6461824.2382469.8183658l2.3824699 1.3541304c.2917496.1456535.6472932.0609077.8398207-.2001758z"/></g></svg>