<svg width="76" height="76" viewBox="0 0 76 76" fill="none" xmlns="http://www.w3.org/2000/svg">
<path d="M38.0039 14.1727C37.4459 14.175 36.91 13.9543 36.5154 13.5597C36.1208 13.1651 35.9001 12.6292 35.9024 12.0712V2.10153C35.9024 0.940888 36.8433 0 38.0039 0C39.1646 0 40.1054 0.940888 40.1054 2.10153V12.0712C40.1054 12.6286 39.884 13.1631 39.4899 13.5572C39.0958 13.9513 38.5613 14.1727 38.0039 14.1727Z" fill="#1F335E" fill-opacity="0.25"/>
<path d="M38.0039 75.9999C37.4459 76.0021 36.91 75.7814 36.5154 75.3868C36.1208 74.9922 35.9001 74.4564 35.9024 73.8983V63.9287C35.9024 62.768 36.8433 61.8271 38.0039 61.8271C39.1646 61.8271 40.1054 62.768 40.1054 63.9287V73.8983C40.1054 74.4557 39.884 74.9902 39.4899 75.3844C39.0958 75.7785 38.5613 75.9999 38.0039 75.9999Z" fill="#1F335E" fill-opacity="0.25"/>
<path d="M49.916 17.3675C49.4315 17.0895 49.0776 16.63 48.9325 16.0906C48.7874 15.5512 48.863 14.9762 49.1427 14.4926L54.1275 5.88473C54.7117 4.88816 55.9908 4.54999 56.9913 5.12761C57.9917 5.70522 58.3383 6.98203 57.7674 7.98627L52.7825 16.5941C52.5062 17.0781 52.0482 17.4318 51.5101 17.577C50.9721 17.7222 50.3983 17.6468 49.916 17.3675Z" fill="#1F335E" fill-opacity="0.25"/>
<path d="M26.0592 17.3664C25.5769 17.6457 25.0032 17.7211 24.4651 17.5759C23.927 17.4307 23.4691 17.077 23.1927 16.593L18.2331 7.95996C17.8107 6.97878 18.1916 5.83686 19.1184 5.30571C20.0453 4.77457 21.2231 5.02321 21.8561 5.88364L26.8998 14.4915C27.1741 14.9833 27.2396 15.5645 27.0815 16.105C26.9235 16.6455 26.5552 17.0999 26.0592 17.3664Z" fill="#1F335E" fill-opacity="0.25"/>
<path d="M57.0028 70.9062C56.5208 71.1888 55.9458 71.267 55.4058 71.1233C54.8658 70.9796 54.4057 70.626 54.1279 70.1412L49.1431 61.5081C48.7617 60.8576 48.7581 60.0525 49.1337 59.3986C49.5093 58.7446 50.2065 58.3421 50.9606 58.3438C51.7148 58.3454 52.4102 58.751 52.7829 59.4066L57.7678 68.0397C58.3459 69.0428 58.0038 70.3245 57.0028 70.9062Z" fill="#1F335E" fill-opacity="0.25"/>
<path d="M17.3655 26.0593C17.0876 26.5438 16.6281 26.8977 16.0887 27.0428C15.5492 27.188 14.9742 27.1123 14.4907 26.8327L5.88278 21.8562C4.88621 21.272 4.54804 19.9929 5.12565 18.9925C5.70327 17.9921 6.98007 17.6454 7.98431 18.2164L16.6174 23.2012C17.6113 23.7853 17.9458 25.0631 17.3655 26.0593Z" fill="#1F335E" fill-opacity="0.25"/>
<path d="M70.9052 57.0018C70.3235 58.0029 69.0418 58.3449 68.0387 57.7668L59.4056 52.7819C58.75 52.4092 58.3444 51.7138 58.3428 50.9597C58.3411 50.2055 58.7437 49.5083 59.3976 49.1327C60.0515 48.7571 60.8566 48.7607 61.5071 49.1421L70.1402 54.1269C70.6251 54.4047 70.9787 54.8648 71.1224 55.4048C71.266 55.9448 71.1878 56.5198 70.9052 57.0018Z" fill="#1F335E" fill-opacity="0.25"/>
<path d="M14.1727 38.0039C14.1727 39.1646 13.2318 40.1054 12.0712 40.1054H2.10153C0.940888 40.1054 0 39.1646 0 38.0039C0 36.8433 0.940888 35.9024 2.10153 35.9024H12.0712C12.6292 35.9001 13.1651 36.1208 13.5597 36.5154C13.9543 36.91 14.175 37.4459 14.1727 38.0039Z" fill="#1F335E" fill-opacity="0.25"/>
<path d="M75.9999 38.0039C75.9999 39.1646 75.059 40.1054 73.8983 40.1054H63.9287C62.768 40.1054 61.8271 39.1646 61.8271 38.0039C61.8271 36.8433 62.768 35.9024 63.9287 35.9024H73.8983C74.4564 35.9001 74.9922 36.1208 75.3868 36.5154C75.7814 36.91 76.0021 37.4459 75.9999 38.0039Z" fill="#1F335E" fill-opacity="0.25"/>
<path d="M17.3668 49.9153C17.6461 50.3976 17.7215 50.9713 17.5763 51.5094C17.4311 52.0475 17.0774 52.5054 16.5934 52.7818L7.96034 57.7666C6.96778 58.2349 5.78204 57.8606 5.23825 56.9073C4.69447 55.954 4.97577 54.7428 5.88402 54.1268L14.5171 49.1419C15.5186 48.5766 16.7885 48.9212 17.3668 49.9153Z" fill="#1F335E" fill-opacity="0.25"/>
<path d="M70.9042 18.9972C71.4816 19.9978 71.1393 21.2769 70.1393 21.8553L61.5062 26.899C60.8556 27.2804 60.0505 27.284 59.3966 26.9083C58.7427 26.5327 58.3401 25.8355 58.3418 25.0814C58.3435 24.3273 58.7491 23.6319 59.4046 23.2591L68.0377 18.2743C69.0299 17.6889 70.3084 18.0113 70.9042 18.9972Z" fill="#1F335E" fill-opacity="0.25"/>
<path d="M23.3269 70.3584L17.3333 66.8951C17.0822 66.7494 16.8994 66.5097 16.8253 66.2289C16.7512 65.9482 16.7918 65.6495 16.9382 65.3988L21.2422 58.5814C21.5491 58.0583 22.2193 57.8786 22.7469 58.178L28.2024 61.3639C28.6922 61.6771 28.8573 62.3152 28.5807 62.8265L24.798 69.9549C24.4952 70.4623 23.8461 70.6403 23.3269 70.3584Z" fill="#D61F85"/>
<path d="M50.3447 31.3131C50.5424 30.9968 50.5424 30.5954 50.3447 30.2791C49.689 29.1947 47.9657 27.8413 44.8639 26.076C41.762 24.3108 39.6689 23.4449 38.4164 23.4365C38.0607 23.4392 37.7363 23.6403 37.5758 23.9577L26.1603 52.6646C25.9565 53.0827 26.1016 53.5872 26.4965 53.8331L29.859 55.7665C30.2707 55.9745 30.7725 55.8535 31.0442 55.4807L50.3447 31.3131Z" fill="#D61F85"/>
</svg>
