<svg width="65" height="65" viewBox="0 0 65 65" fill="none" xmlns="http://www.w3.org/2000/svg">
<path d="M32.5044 12.1215C32.0272 12.1234 31.5689 11.9346 31.2314 11.5971C30.8939 11.2596 30.7051 10.8014 30.707 10.3241V1.79737C30.707 0.804709 31.5118 0 32.5044 0C33.4971 0 34.3018 0.804709 34.3018 1.79737V10.3241C34.3018 10.8008 34.1124 11.2579 33.7754 11.595C33.4383 11.9321 32.9811 12.1215 32.5044 12.1215Z" fill="black" fill-opacity="0.32"/>
<path d="M32.5044 64.9999C32.0272 65.0018 31.5689 64.813 31.2314 64.4755C30.8939 64.1381 30.7051 63.6798 30.707 63.2025V54.6758C30.707 53.6831 31.5118 52.8784 32.5044 52.8784C33.4971 52.8784 34.3018 53.6831 34.3018 54.6758V63.2025C34.3018 63.6792 34.1124 64.1363 33.7754 64.4734C33.4383 64.8105 32.9811 64.9999 32.5044 64.9999Z" fill="black" fill-opacity="0.32"/>
<path d="M42.688 14.8535C42.2737 14.6157 41.971 14.2228 41.8469 13.7614C41.7228 13.3001 41.7874 12.8083 42.0266 12.3947L46.29 5.03269C46.7896 4.18035 47.8836 3.89113 48.7392 4.38514C49.5949 4.87916 49.8913 5.97117 49.403 6.83006L45.1397 14.1921C44.9033 14.606 44.5116 14.9085 44.0514 15.0327C43.5912 15.1568 43.1005 15.0923 42.688 14.8535Z" fill="black" fill-opacity="0.32"/>
<path d="M22.2854 14.8535C21.8729 15.0923 21.3822 15.1568 20.9221 15.0326C20.4619 14.9085 20.0702 14.6059 19.8338 14.192L15.592 6.80845C15.2308 5.96928 15.5566 4.99264 16.3493 4.53837C17.1419 4.0841 18.1493 4.29676 18.6907 5.03266L23.0044 12.3947C23.239 12.8153 23.295 13.3124 23.1598 13.7746C23.0246 14.2369 22.7097 14.6255 22.2854 14.8535Z" fill="black" fill-opacity="0.32"/>
<path d="M48.7502 60.6431C48.338 60.8849 47.8462 60.9517 47.3844 60.8289C46.9225 60.706 46.529 60.4035 46.2914 59.9889L42.0281 52.6053C41.7019 52.0489 41.6988 51.3604 42.0201 50.8011C42.3413 50.2418 42.9376 49.8975 43.5826 49.8989C44.2275 49.9004 44.8223 50.2472 45.1411 50.8079L49.4045 58.1915C49.8989 59.0494 49.6064 60.1457 48.7502 60.6431Z" fill="black" fill-opacity="0.32"/>
<path d="M14.854 22.2877C14.6162 22.7021 14.2233 23.0048 13.7619 23.1289C13.3006 23.253 12.8088 23.1883 12.3952 22.9491L5.03318 18.693C4.18084 18.1933 3.89162 17.0993 4.38563 16.2437C4.87965 15.3881 5.97166 15.0916 6.83054 15.5799L14.2141 19.8433C15.0642 20.3428 15.3503 21.4357 14.854 22.2877Z" fill="black" fill-opacity="0.32"/>
<path d="M60.6426 48.7517C60.1452 49.6078 59.0489 49.9004 58.191 49.4059L50.8075 45.1426C50.2468 44.8238 49.8999 44.229 49.8984 43.584C49.897 42.9391 50.2413 42.3428 50.8006 42.0215C51.3599 41.7003 52.0484 41.7033 52.6048 42.0295L59.9884 46.2929C60.403 46.5305 60.7055 46.924 60.8284 47.3858C60.9513 47.8476 60.8844 48.3394 60.6426 48.7517Z" fill="black" fill-opacity="0.32"/>
<path d="M12.1215 32.5035C12.1215 33.4961 11.3167 34.3008 10.3241 34.3008H1.79737C0.804709 34.3008 0 33.4961 0 32.5035C0 31.5108 0.804709 30.7061 1.79737 30.7061H10.3241C10.8014 30.7042 11.2596 30.8929 11.5971 31.2304C11.9346 31.5679 12.1234 32.0262 12.1215 32.5035Z" fill="black" fill-opacity="0.32"/>
<path d="M65.0004 32.5035C65.0004 33.4961 64.1956 34.3008 63.203 34.3008H54.6763C53.6836 34.3008 52.8789 33.4961 52.8789 32.5035C52.8789 31.5108 53.6836 30.7061 54.6763 30.7061H63.203C63.6803 30.7042 64.1385 30.8929 64.476 31.2304C64.8135 31.5679 65.0023 32.0262 65.0004 32.5035Z" fill="black" fill-opacity="0.32"/>
<path d="M14.8516 42.6913C15.0905 43.1038 15.155 43.5945 15.0308 44.0546C14.9067 44.5148 14.6041 44.9065 14.1902 45.1429L6.80664 49.4062C5.95774 49.8067 4.94361 49.4866 4.47853 48.6713C4.01345 47.856 4.25404 46.8201 5.03084 46.2932L12.4144 42.0298C13.271 41.5463 14.3571 41.8411 14.8516 42.6913Z" fill="black" fill-opacity="0.32"/>
<path d="M60.6426 16.2483C61.1365 17.104 60.8437 18.1981 59.9884 18.6927L52.6048 23.0064C52.0484 23.3326 51.3599 23.3357 50.8006 23.0144C50.2413 22.6932 49.897 22.0969 49.8984 21.4519C49.8999 20.8069 50.2468 20.2121 50.8075 19.8934L58.191 15.63C59.0396 15.1293 60.133 15.4051 60.6426 16.2483Z" fill="black" fill-opacity="0.32"/>
<path d="M19.9509 60.1756L14.8249 57.2136C14.6101 57.0889 14.4537 56.8839 14.3903 56.6438C14.327 56.4037 14.3617 56.1483 14.487 55.9338L18.168 50.1032C18.4305 49.6557 19.0037 49.502 19.4549 49.7581L24.1208 52.4829C24.5397 52.7507 24.6809 53.2965 24.4444 53.7339L21.2091 59.8305C20.9502 60.2644 20.395 60.4167 19.9509 60.1756Z" fill="black"/>
<path d="M43.0557 26.781C43.2248 26.5105 43.2248 26.1672 43.0557 25.8967C42.4949 24.9692 41.021 23.8117 38.3681 22.3019C35.7152 20.7921 33.925 20.0516 32.8538 20.0444C32.5496 20.0467 32.2722 20.2187 32.1349 20.4902L22.3716 45.0422C22.1973 45.3998 22.3214 45.8313 22.6591 46.0415L25.5349 47.6951C25.8871 47.873 26.3163 47.7695 26.5486 47.4507L43.0557 26.781Z" fill="black"/>
</svg>
