<svg height="48" viewBox="0 0 48 48" width="48" xmlns="http://www.w3.org/2000/svg"><g fill="none"><g fill="#fff" fill-opacity=".418542"><path d="m24.0026492 8.95123093c-.3524511.00140761-.6908764-.1379756-.940099-.38719822s-.3886058-.58764785-.3871982-.94009901v-6.29664719c0-.7330401.5942571-1.32728651 1.3272972-1.32728651s1.3272865.59424641 1.3272865 1.32728651v6.29664719c0 .35201827-.1398387.68961879-.3887532.93853329-.2489145.24891451-.586515.38876394-.9385333.38876394z"/><path d="m24.0026492 48c-.3524511.0014076-.6908764-.1379756-.940099-.3871982s-.3886058-.5876479-.3871982-.940099v-6.2966472c0-.7330401.5942571-1.3272865 1.3272972-1.3272865s1.3272865.5942464 1.3272865 1.3272865v6.2966472c0 .3520182-.1398387.6896188-.3887532.9385333s-.586515.3887639-.9385333.3887639z"/><path d="m31.5257091 10.9686957c-.3060135-.175578-.5295324-.4657654-.621181-.8064594-.0916487-.34069404-.0438852-.70385802.1327396-1.00926854l3.1483236-5.43656554c.3689933-.62941733 1.1768347-.84299763 1.8086858-.47818752s.8507853 1.17121695.4901744 1.80547403l-3.1483236 5.43656557c-.1745515.3056528-.463789.5290754-.803621.6207603s-.7021963.044061-1.0067978-.1323189z"/><path d="m16.4583527 10.9686957c-.3046015.1763799-.6669658.2240038-1.0067978.1323189s-.6290694-.3151075-.803621-.6207603l-3.1323962-5.45249301c-.2667505-.61969411-.0261783-1.34090771.5591791-1.67636773.5853573-.33546001 1.3292417-.17842453 1.7290629.36500866l3.1854876 5.43656554c.1732353.31058721.2145844.67770305.1147772 1.01904364-.0998072.3413406-.3324211.6283503-.6456918.7966843z"/><path d="m36.0013192 44.7826468c-.3044273.1785139-.6675934.2278964-1.0086339.1371517-.3410404-.0907447-.6316407-.3140826-.807094-.620284l-3.1483236-5.452493c-.2408818-.4108886-.2431367-.9193443-.0059089-1.3323533s.6775645-.6672449 1.1538547-.6662011c.4762903.0010503.9155048.2572198 1.1509144.6712679l3.1483236 5.452493c.3651451.6335285.1491129 1.443056-.4831323 1.8104188z"/><path d="m10.9686957 16.4583527c-.175578.3060135-.4657654.5295324-.8064594.6211811-.34069404.0916487-.70385802.0438851-1.00926854-.1327397l-5.43656554-3.1430144c-.62941733-.3689933-.84299763-1.1768347-.47818752-1.8086858s1.17121695-.8507853 1.80547403-.4901744l5.45249297 3.1483235c.6277297.3689092.8389855 1.1759537.472514 1.8051097z"/><path d="m44.7826468 36.0013192c-.3673628.6322452-1.1768903.8482774-1.8104188.4831323l-5.452493-3.1483236c-.4140481-.2354096-.6702176-.6746241-.6712679-1.1509144-.0010438-.4762902.2531921-.9166269.6662011-1.1538547s.9214647-.2349729 1.3323533.0059089l5.452493 3.1483236c.3062014.1754533.5295393.4660536.620284.807094.0907447.3410405.0413622.7042066-.1371517 1.0086339z"/><path d="m8.95123093 24.0026492c0 .7330401-.59425713 1.3272865-1.32729723 1.3272865h-6.29664719c-.7330401 0-1.32728651-.5942464-1.32728651-1.3272865s.59424641-1.3272972 1.32728651-1.3272972h6.29664719c.35245116-.0014076.69087639.1379756.94009901.3871982s.38860583.5876479.38719822.940099z"/><path d="m48 24.0026492c0 .7330401-.5942571 1.3272865-1.3272972 1.3272865h-6.2966472c-.7330401 0-1.3272865-.5942464-1.3272865-1.3272865s.5942464-1.3272972 1.3272865-1.3272972h6.2966472c.3524511-.0014076.6908764.1379756.940099.3871982s.3886058.5876479.3871982.940099z"/><path d="m10.9686957 31.5257091c.1763799.3046015.2240038.6669658.1323189 1.0067978s-.3151075.6290695-.6207603.803621l-5.45249301 3.1483236c-.62687855.2957432-1.37577192.0593212-1.71921551-.5427479-.3434436-.6020691-.1657806-1.3670348.40785644-1.7561123l5.45249298-3.1483236c.63251966-.3570798 1.4345784-.139412 1.7998005.4884414z"/><path d="m44.7826468 11.99867c.3646719.631931.1484425 1.4398213-.4831323 1.8051097l-5.452493 3.1854876c-.4108886.2408818-.9193443.2431367-1.3323533.0059089s-.6672449-.6775645-.6662011-1.1538547c.0010503-.4762903.2572198-.9155048.6712679-1.1509144l5.452493-3.1483236c.626616-.369724 1.4340834-.1660812 1.8104188.4565865z"/></g><path d="m14.7328802 44.4375523-3.7854211-2.1873682c-.1586019-.0920496-.2740518-.2434321-.3208675-.4207341-.0468157-.1773019-.021148-.3659458.0713377-.5242939l2.7182827-4.3057174c.1938759-.3304212.617152-.4439254.9503372-.254839l3.4456357 2.0121663c.3093408.1977978.413571.6008212.2389116.9237914l-2.3891157 4.5021559c-.1911986.3204227-.6011818.4328753-.9291006.254839z" fill="#fdfaf5"/><path d="m31.7964756 19.776569c.1249049-.199757.1249049-.453268 0-.653025-.4141134-.6848798-1.5024883-1.5396523-3.4615632-2.654573s-3.2810523-1.6617627-4.072115-1.6670719c-.2246427.0016662-.4295306.1286966-.5309146.3291671l-7.2098203 18.1307337c-.1287084.2640713-.0370159.5827028.2123658.7379713l2.1236584 1.2211036c.2600563.1313448.5769767.0549242.7485896-.180511z" fill="#fdfaf5"/></g></svg>