<svg width="512" height="512" viewBox="0 0 512 512" fill="none" xmlns="http://www.w3.org/2000/svg">
<rect width="512" height="512" fill="white"/>
<path d="M255.816 143.058C253.175 143.069 250.64 142.024 248.773 140.157C246.906 138.29 245.862 135.755 245.872 133.115V85.9434C245.872 80.4518 250.324 76 255.816 76C261.307 76 265.759 80.4518 265.759 85.9434V133.115C265.759 135.752 264.711 138.281 262.847 140.146C260.982 142.01 258.453 143.058 255.816 143.058Z" fill="#1F335E"/>
<path d="M255.816 435.592C253.175 435.603 250.64 434.559 248.773 432.692C246.906 430.825 245.862 428.289 245.872 425.649V378.478C245.872 372.986 250.324 368.534 255.816 368.534C261.307 368.534 265.759 372.986 265.759 378.478V425.649C265.759 428.286 264.711 430.815 262.847 432.68C260.982 434.545 258.453 435.592 255.816 435.592Z" fill="#1F335E"/>
<path d="M312.177 158.174C309.884 156.859 308.21 154.685 307.523 152.133C306.836 149.581 307.194 146.86 308.517 144.572L332.103 103.844C334.867 99.1286 340.919 97.5286 345.653 100.262C350.386 102.995 352.027 109.036 349.325 113.787L325.739 154.515C324.432 156.805 322.265 158.479 319.719 159.166C317.173 159.853 314.459 159.496 312.177 158.174Z" fill="#1F335E"/>
<path d="M199.298 158.168C197.016 159.49 194.301 159.846 191.755 159.159C189.21 158.473 187.043 156.799 185.735 154.509L162.269 113.662C160.27 109.019 162.073 103.616 166.458 101.103C170.843 98.5901 176.416 99.7666 179.411 103.838L203.275 144.566C204.573 146.892 204.883 149.643 204.135 152.2C203.387 154.757 201.645 156.907 199.298 158.168Z" fill="#1F335E"/>
<path d="M345.708 411.492C343.427 412.829 340.707 413.199 338.152 412.519C335.597 411.839 333.42 410.166 332.105 407.872L308.52 367.025C306.715 363.947 306.698 360.138 308.475 357.044C310.253 353.95 313.551 352.045 317.12 352.053C320.688 352.061 323.978 353.98 325.742 357.082L349.327 397.929C352.063 402.675 350.444 408.74 345.708 411.492Z" fill="#1F335E"/>
<path d="M158.165 199.299C156.849 201.592 154.675 203.266 152.123 203.953C149.571 204.64 146.85 204.282 144.562 202.959L103.834 179.413C99.1189 176.648 97.5188 170.596 100.252 165.863C102.985 161.129 109.026 159.489 113.777 162.191L154.625 185.776C159.327 188.54 160.91 194.586 158.165 199.299Z" fill="#1F335E"/>
<path d="M411.487 345.703C408.735 350.439 402.67 352.058 397.924 349.322L357.077 325.737C353.975 323.973 352.056 320.683 352.048 317.115C352.04 313.547 353.945 310.248 357.039 308.471C360.133 306.693 363.942 306.71 367.02 308.515L407.867 332.1C410.161 333.415 411.834 335.592 412.514 338.147C413.194 340.702 412.824 343.422 411.487 345.703Z" fill="#1F335E"/>
<path d="M143.058 255.816C143.058 261.307 138.606 265.759 133.115 265.759H85.9434C80.4518 265.759 76 261.307 76 255.816C76 250.324 80.4518 245.872 85.9434 245.872H133.115C135.755 245.862 138.29 246.906 140.157 248.773C142.024 250.64 143.069 253.175 143.058 255.816Z" fill="#1F335E"/>
<path d="M435.592 255.816C435.592 261.307 431.14 265.759 425.649 265.759H378.478C372.986 265.759 368.534 261.307 368.534 255.816C368.534 250.324 372.986 245.872 378.478 245.872H425.649C428.289 245.862 430.825 246.906 432.692 248.773C434.559 250.64 435.603 253.175 435.592 255.816Z" fill="#1F335E"/>
<path d="M158.171 312.174C159.492 314.456 159.849 317.17 159.162 319.716C158.475 322.262 156.802 324.429 154.512 325.737L113.665 349.322C108.968 351.538 103.358 349.767 100.785 345.256C98.2121 340.746 99.5431 335.015 103.84 332.1L144.688 308.515C149.426 305.84 155.435 307.47 158.171 312.174Z" fill="#1F335E"/>
<path d="M411.482 165.885C414.214 170.619 412.594 176.671 407.862 179.408L367.015 203.272C363.937 205.076 360.128 205.093 357.034 203.316C353.94 201.539 352.035 198.24 352.043 194.672C352.051 191.104 353.97 187.813 357.072 186.05L397.919 162.464C402.613 159.694 408.663 161.22 411.482 165.885Z" fill="#1F335E"/>
<path d="M186.371 408.9L158.013 392.513C156.824 391.823 155.96 390.689 155.609 389.361C155.258 388.033 155.45 386.62 156.143 385.433L176.507 353.177C177.96 350.702 181.131 349.851 183.627 351.268L209.44 366.342C211.757 367.824 212.538 370.843 211.229 373.263L193.331 406.99C191.899 409.391 188.828 410.233 186.371 408.9Z" fill="#D61F85"/>
<path d="M314.205 224.157C315.14 222.661 315.14 220.762 314.205 219.265C311.102 214.134 302.949 207.731 288.272 199.379C273.596 191.026 263.692 186.929 257.766 186.89C256.083 186.902 254.548 187.854 253.789 189.356L199.777 325.182C198.812 327.16 199.499 329.547 201.368 330.71L217.277 339.858C219.225 340.842 221.599 340.27 222.885 338.506L314.205 224.157Z" fill="#D61F85"/>
</svg>
