<svg width="182" height="42" viewBox="0 0 182 42" fill="none" xmlns="http://www.w3.org/2000/svg">
<path d="M20.0625 8.42178C19.768 8.42296 19.4851 8.30645 19.2768 8.09814C19.0685 7.88983 18.952 7.60696 18.9531 7.31237V2.04935C18.9531 1.43664 19.4498 0.939941 20.0625 0.939941C20.6753 0.939941 21.172 1.43664 21.172 2.04935V7.31237C21.172 7.6066 21.0551 7.88878 20.847 8.09683C20.639 8.30489 20.3568 8.42178 20.0625 8.42178Z" fill="#171313" fill-opacity="0.25"/>
<path d="M20.0625 41.0605C19.768 41.0616 19.4851 40.9451 19.2768 40.7368C19.0685 40.5285 18.952 40.2456 18.9531 39.951V34.688C18.9531 34.0753 19.4498 33.5786 20.0625 33.5786C20.6753 33.5786 21.172 34.0753 21.172 34.688V39.951C21.172 40.2453 21.0551 40.5275 20.847 40.7355C20.639 40.9436 20.3568 41.0605 20.0625 41.0605Z" fill="#171313" fill-opacity="0.25"/>
<path d="M26.3464 10.1079C26.0906 9.9611 25.9038 9.71855 25.8272 9.43378C25.7505 9.14901 25.7905 8.84547 25.9381 8.59019L28.5696 4.04607C28.878 3.51997 29.5533 3.34145 30.0814 3.64638C30.6095 3.9513 30.7925 4.62533 30.4911 5.15547L27.8596 9.6996C27.7137 9.95507 27.4719 10.1418 27.1879 10.2185C26.9038 10.2951 26.601 10.2553 26.3464 10.1079Z" fill="#171313" fill-opacity="0.25"/>
<path d="M13.7571 10.1081C13.5025 10.2555 13.1997 10.2953 12.9156 10.2187C12.6316 10.142 12.3898 9.95529 12.2439 9.69981L9.62572 5.14237C9.40276 4.62441 9.60384 4.02158 10.0931 3.74119C10.5824 3.4608 11.2041 3.59206 11.5383 4.04628L14.2009 8.5904C14.3457 8.85001 14.3803 9.15686 14.2968 9.44217C14.2134 9.72747 14.019 9.96737 13.7571 10.1081Z" fill="#171313" fill-opacity="0.25"/>
<path d="M30.0906 38.371C29.8361 38.5202 29.5326 38.5615 29.2475 38.4856C28.9625 38.4098 28.7196 38.2231 28.5729 37.9672L25.9414 33.4097C25.7401 33.0663 25.7382 32.6413 25.9365 32.2961C26.1347 31.9509 26.5028 31.7384 26.9009 31.7393C27.299 31.7401 27.6661 31.9543 27.8629 32.3003L30.4944 36.8578C30.7996 37.3873 30.619 38.0639 30.0906 38.371Z" fill="#171313" fill-opacity="0.25"/>
<path d="M9.16499 14.6966C9.01823 14.9524 8.77568 15.1392 8.49091 15.2158C8.20614 15.2924 7.9026 15.2525 7.64732 15.1049L3.1032 12.4778C2.5771 12.1694 2.39858 11.4941 2.7035 10.966C3.00843 10.4379 3.68246 10.2549 4.2126 10.5563L8.77004 13.1878C9.29472 13.4962 9.4713 14.1707 9.16499 14.6966Z" fill="#171313" fill-opacity="0.25"/>
<path d="M37.4325 31.031C37.1255 31.5595 36.4488 31.74 35.9193 31.4348L31.3619 28.8033C31.0158 28.6066 30.8017 28.2394 30.8008 27.8413C30.7999 27.4432 31.0124 27.0752 31.3576 26.8769C31.7028 26.6786 32.1278 26.6805 32.4713 26.8818L37.0287 29.5133C37.2846 29.66 37.4713 29.9029 37.5472 30.1879C37.623 30.473 37.5817 30.7766 37.4325 31.031Z" fill="#171313" fill-opacity="0.25"/>
<path d="M7.48184 21.002C7.48184 21.6147 6.98513 22.1114 6.37242 22.1114H1.10941C0.496698 22.1114 0 21.6147 0 21.002C0 20.3893 0.496698 19.8926 1.10941 19.8926H6.37242C6.66702 19.8914 6.94989 20.0079 7.1582 20.2162C7.36651 20.4245 7.48301 20.7074 7.48184 21.002Z" fill="#171313" fill-opacity="0.25"/>
<path d="M40.1225 21.002C40.1225 21.6147 39.6258 22.1114 39.013 22.1114H33.75C33.1373 22.1114 32.6406 21.6147 32.6406 21.002C32.6406 20.3893 33.1373 19.8926 33.75 19.8926H39.013C39.3076 19.8914 39.5905 20.0079 39.7988 20.2162C40.0071 20.4245 40.1236 20.7074 40.1225 21.002Z" fill="#171313" fill-opacity="0.25"/>
<path d="M9.16576 27.2905C9.31319 27.5451 9.353 27.848 9.27636 28.1321C9.19973 28.4161 9.01298 28.6579 8.7575 28.8038L4.20007 31.4353C3.67609 31.6825 3.05013 31.4848 2.76307 30.9816C2.476 30.4784 2.6245 29.839 3.10397 29.5138L7.66141 26.8823C8.1901 26.5838 8.86049 26.7657 9.16576 27.2905Z" fill="#171313" fill-opacity="0.25"/>
<path d="M37.4325 10.9683C37.7373 11.4965 37.5566 12.1718 37.0287 12.4771L32.4713 15.1397C32.1278 15.341 31.7028 15.3429 31.3576 15.1446C31.0124 14.9464 30.7999 14.5783 30.8008 14.1802C30.8017 13.7821 31.0158 13.415 31.3619 13.2182L35.9193 10.5867C36.443 10.2777 37.118 10.4479 37.4325 10.9683Z" fill="#171313" fill-opacity="0.25"/>
<path d="M12.3146 38.0822L9.15059 36.2539C9.01803 36.177 8.92153 36.0504 8.8824 35.9022C8.84327 35.754 8.86472 35.5964 8.94203 35.464L11.2141 31.8651C11.3761 31.5889 11.7299 31.4941 12.0084 31.6521L14.8884 33.334C15.147 33.4993 15.2341 33.8362 15.0881 34.1061L13.0912 37.8692C12.9314 38.137 12.5887 38.231 12.3146 38.0822Z" fill="#171313"/>
<path d="M26.5773 17.4701C26.6817 17.3031 26.6817 17.0912 26.5773 16.9242C26.2311 16.3518 25.3214 15.6373 23.6839 14.7054C22.0465 13.7735 20.9415 13.3164 20.2803 13.312C20.0925 13.3134 19.9213 13.4196 19.8365 13.5871L13.8102 28.7416C13.7027 28.9623 13.7793 29.2287 13.9877 29.3584L15.7628 30.3791C15.9802 30.4889 16.245 30.425 16.3885 30.2282L26.5773 17.4701Z" fill="#171313"/>
<path d="M55.3947 18.001H57.8607V6.75098H61.2807V4.59098H51.9207V6.75098H55.3947V18.001ZM62.5765 7.11098H64.9345V4.59098H62.5765V7.11098ZM62.5765 18.001H64.9345V8.20898H62.5765V18.001ZM67.1117 18.001H69.4697V12.259C69.4697 11.623 69.6437 11.113 69.9917 10.729C70.3397 10.345 70.7957 10.153 71.3597 10.153C71.9357 10.153 72.3917 10.345 72.7277 10.729C73.0757 11.101 73.2497 11.611 73.2497 12.259V18.001H75.6077V12.259C75.6077 11.623 75.7817 11.113 76.1297 10.729C76.4777 10.345 76.9337 10.153 77.4977 10.153C78.0737 10.153 78.5297 10.345 78.8657 10.729C79.2137 11.101 79.3877 11.611 79.3877 12.259V18.001H81.7457V11.701C81.7457 10.969 81.5837 10.327 81.2597 9.77498C80.9477 9.21098 80.5217 8.77298 79.9817 8.46098C79.4417 8.14898 78.8237 7.99298 78.1277 7.99298C77.4797 7.99298 76.8917 8.12498 76.3637 8.38898C75.8477 8.65298 75.4217 9.04898 75.0857 9.57698C74.7977 9.09698 74.3837 8.71298 73.8437 8.42498C73.3157 8.13698 72.7217 7.99298 72.0617 7.99298C71.4497 7.99298 70.9037 8.11298 70.4237 8.35298C69.9437 8.59298 69.5777 8.95298 69.3257 9.43298V8.20898H67.1117V18.001ZM88.3846 18.217C89.3806 18.217 90.2506 17.995 90.9946 17.551C91.7506 17.095 92.2786 16.519 92.5786 15.823L90.6706 14.887C90.4546 15.259 90.1546 15.565 89.7706 15.805C89.3986 16.033 88.9426 16.147 88.4026 16.147C87.6946 16.147 87.1006 15.931 86.6206 15.499C86.1406 15.067 85.8646 14.491 85.7926 13.771H92.8486C92.8966 13.639 92.9266 13.489 92.9386 13.321C92.9626 13.141 92.9746 12.961 92.9746 12.781C92.9746 11.905 92.7886 11.107 92.4166 10.387C92.0446 9.66698 91.5046 9.09098 90.7966 8.65898C90.0886 8.21498 89.2246 7.99298 88.2046 7.99298C87.2926 7.99298 86.4646 8.21498 85.7206 8.65898C84.9886 9.10298 84.4066 9.70898 83.9746 10.477C83.5546 11.233 83.3446 12.103 83.3446 13.087C83.3446 14.035 83.5546 14.899 83.9746 15.679C84.3946 16.459 84.9826 17.077 85.7386 17.533C86.4946 17.989 87.3766 18.217 88.3846 18.217ZM88.2046 9.93698C88.8286 9.93698 89.3446 10.129 89.7526 10.513C90.1726 10.885 90.4066 11.371 90.4546 11.971H85.8466C85.9786 11.323 86.2546 10.825 86.6746 10.477C87.1066 10.117 87.6166 9.93698 88.2046 9.93698ZM99.0953 18.001H101.453V10.315H103.631V8.20898H101.453V7.88498C101.453 7.39298 101.597 7.03298 101.885 6.80498C102.185 6.56498 102.593 6.44498 103.109 6.44498C103.301 6.44498 103.505 6.46298 103.721 6.49898V4.46498C103.445 4.40498 103.139 4.37498 102.803 4.37498C101.675 4.37498 100.775 4.68098 100.103 5.29298C99.4313 5.90498 99.0953 6.76898 99.0953 7.88498V8.20898H97.3673V10.315H99.0953V18.001ZM109.798 18.217C110.746 18.217 111.61 18.001 112.39 17.569C113.17 17.125 113.794 16.519 114.262 15.751C114.73 14.971 114.964 14.089 114.964 13.105C114.964 12.121 114.73 11.245 114.262 10.477C113.806 9.70898 113.188 9.10298 112.408 8.65898C111.628 8.21498 110.758 7.99298 109.798 7.99298C108.826 7.99298 107.95 8.21498 107.17 8.65898C106.39 9.10298 105.766 9.70898 105.298 10.477C104.842 11.245 104.614 12.121 104.614 13.105C104.614 14.089 104.842 14.965 105.298 15.733C105.766 16.501 106.39 17.107 107.17 17.551C107.962 17.995 108.838 18.217 109.798 18.217ZM109.798 16.057C109.27 16.057 108.796 15.931 108.376 15.679C107.968 15.427 107.644 15.079 107.404 14.635C107.176 14.179 107.062 13.669 107.062 13.105C107.062 12.541 107.176 12.037 107.404 11.593C107.644 11.149 107.968 10.801 108.376 10.549C108.796 10.285 109.27 10.153 109.798 10.153C110.326 10.153 110.788 10.285 111.184 10.549C111.592 10.801 111.91 11.149 112.138 11.593C112.378 12.037 112.498 12.541 112.498 13.105C112.498 13.669 112.378 14.179 112.138 14.635C111.91 15.079 111.592 15.427 111.184 15.679C110.788 15.931 110.326 16.057 109.798 16.057ZM116.752 18.001H119.11V12.547C119.11 11.803 119.314 11.227 119.722 10.819C120.142 10.399 120.682 10.189 121.342 10.189H122.188V8.10098H121.612C121.012 8.10098 120.484 8.20898 120.028 8.42498C119.572 8.64098 119.218 9.03098 118.966 9.59498V8.20898H116.752V18.001ZM59.3187 38.217C60.2787 38.217 61.1367 38.055 61.8927 37.731C62.6607 37.407 63.3087 36.981 63.8367 36.453C64.3647 35.913 64.7427 35.325 64.9707 34.689L62.7747 33.663C62.5107 34.335 62.0787 34.893 61.4787 35.337C60.8907 35.769 60.1707 35.985 59.3187 35.985C58.4787 35.985 57.7407 35.787 57.1047 35.391C56.4687 34.995 55.9707 34.449 55.6107 33.753C55.2507 33.045 55.0707 32.223 55.0707 31.287C55.0707 30.351 55.2507 29.535 55.6107 28.839C55.9707 28.131 56.4687 27.585 57.1047 27.201C57.7407 26.805 58.4787 26.607 59.3187 26.607C60.1707 26.607 60.8907 26.829 61.4787 27.273C62.0787 27.705 62.5107 28.257 62.7747 28.929L64.9707 27.903C64.7427 27.267 64.3647 26.685 63.8367 26.157C63.3087 25.617 62.6607 25.185 61.8927 24.861C61.1367 24.537 60.2787 24.375 59.3187 24.375C58.3587 24.375 57.4707 24.549 56.6547 24.897C55.8387 25.233 55.1307 25.713 54.5307 26.337C53.9307 26.949 53.4627 27.681 53.1267 28.533C52.7907 29.373 52.6227 30.291 52.6227 31.287C52.6227 32.283 52.7907 33.207 53.1267 34.059C53.4627 34.899 53.9307 35.631 54.5307 36.255C55.1307 36.879 55.8387 37.365 56.6547 37.713C57.4707 38.049 58.3587 38.217 59.3187 38.217ZM66.7601 38.001H69.1181V24.375H66.7601V38.001ZM71.2953 27.111H73.6533V24.591H71.2953V27.111ZM71.2953 38.001H73.6533V28.209H71.2953V38.001ZM75.8304 38.001H78.1884V32.259C78.1884 31.623 78.3624 31.113 78.7104 30.729C79.0584 30.345 79.5144 30.153 80.0784 30.153C80.6544 30.153 81.1104 30.345 81.4464 30.729C81.7944 31.101 81.9684 31.611 81.9684 32.259V38.001H84.3264V32.259C84.3264 31.623 84.5004 31.113 84.8484 30.729C85.1964 30.345 85.6524 30.153 86.2164 30.153C86.7924 30.153 87.2484 30.345 87.5844 30.729C87.9324 31.101 88.1064 31.611 88.1064 32.259V38.001H90.4644V31.701C90.4644 30.969 90.3024 30.327 89.9784 29.775C89.6664 29.211 89.2404 28.773 88.7004 28.461C88.1604 28.149 87.5424 27.993 86.8464 27.993C86.1984 27.993 85.6104 28.125 85.0824 28.389C84.5664 28.653 84.1404 29.049 83.8044 29.577C83.5164 29.097 83.1024 28.713 82.5624 28.425C82.0344 28.137 81.4404 27.993 80.7804 27.993C80.1684 27.993 79.6224 28.113 79.1424 28.353C78.6624 28.593 78.2964 28.953 78.0444 29.433V28.209H75.8304V38.001ZM95.4293 38.217C96.7013 38.217 97.7213 37.797 98.4893 36.957V38.001H100.721V31.485C100.721 30.801 100.547 30.195 100.199 29.667C99.8513 29.139 99.3713 28.731 98.7593 28.443C98.1593 28.143 97.4573 27.993 96.6533 27.993C95.6693 27.993 94.7933 28.227 94.0253 28.695C93.2573 29.163 92.7293 29.781 92.4413 30.549L94.3673 31.485C94.5473 31.041 94.8293 30.687 95.2133 30.423C95.5973 30.147 96.0473 30.009 96.5633 30.009C97.1033 30.009 97.5353 30.153 97.8593 30.441C98.1953 30.717 98.3633 31.065 98.3633 31.485V31.809L95.4473 32.277C94.2953 32.469 93.4433 32.835 92.8913 33.375C92.3393 33.915 92.0633 34.593 92.0633 35.409C92.0633 36.273 92.3693 36.957 92.9813 37.461C93.5933 37.965 94.4093 38.217 95.4293 38.217ZM94.5113 35.319C94.5113 34.635 94.9733 34.203 95.8973 34.023L98.3633 33.609V34.005C98.3633 34.677 98.1293 35.247 97.6613 35.715C97.2053 36.183 96.6053 36.417 95.8613 36.417C95.4653 36.417 95.1413 36.321 94.8893 36.129C94.6373 35.925 94.5113 35.655 94.5113 35.319ZM107.189 38.109C107.369 38.109 107.567 38.097 107.783 38.073C107.999 38.049 108.191 38.025 108.359 38.001V35.985C108.131 36.021 107.921 36.039 107.729 36.039C107.153 36.039 106.733 35.907 106.469 35.643C106.205 35.379 106.073 35.001 106.073 34.509V30.315H108.323V28.209H106.073V25.977H103.715V26.733C103.715 27.213 103.583 27.579 103.319 27.831C103.055 28.083 102.683 28.209 102.203 28.209H102.023V30.315H103.715V34.635C103.715 35.727 104.015 36.579 104.615 37.191C105.227 37.803 106.085 38.109 107.189 38.109ZM114.717 38.217C115.713 38.217 116.583 37.995 117.327 37.551C118.083 37.095 118.611 36.519 118.911 35.823L117.003 34.887C116.787 35.259 116.487 35.565 116.103 35.805C115.731 36.033 115.275 36.147 114.735 36.147C114.027 36.147 113.433 35.931 112.953 35.499C112.473 35.067 112.197 34.491 112.125 33.771H119.181C119.229 33.639 119.259 33.489 119.271 33.321C119.295 33.141 119.307 32.961 119.307 32.781C119.307 31.905 119.121 31.107 118.749 30.387C118.377 29.667 117.837 29.091 117.129 28.659C116.421 28.215 115.557 27.993 114.537 27.993C113.625 27.993 112.797 28.215 112.053 28.659C111.321 29.103 110.739 29.709 110.307 30.477C109.887 31.233 109.677 32.103 109.677 33.087C109.677 34.035 109.887 34.899 110.307 35.679C110.727 36.459 111.315 37.077 112.071 37.533C112.827 37.989 113.709 38.217 114.717 38.217ZM114.537 29.937C115.161 29.937 115.677 30.129 116.085 30.513C116.505 30.885 116.739 31.371 116.787 31.971H112.179C112.311 31.323 112.587 30.825 113.007 30.477C113.439 30.117 113.949 29.937 114.537 29.937ZM123.393 38.001H126.039L127.011 35.121H132.195L133.149 38.001H135.813L131.187 24.591H128.019L123.393 38.001ZM127.713 32.961L129.603 27.309L131.493 32.961H127.713ZM141.472 38.217C142.18 38.217 142.834 38.097 143.434 37.857C144.034 37.605 144.55 37.263 144.982 36.831C145.414 36.387 145.726 35.889 145.918 35.337L143.848 34.401C143.656 34.917 143.35 35.325 142.93 35.625C142.522 35.913 142.036 36.057 141.472 36.057C140.956 36.057 140.494 35.931 140.086 35.679C139.69 35.427 139.378 35.079 139.15 34.635C138.922 34.179 138.808 33.669 138.808 33.105C138.808 32.529 138.922 32.019 139.15 31.575C139.378 31.131 139.69 30.783 140.086 30.531C140.494 30.279 140.956 30.153 141.472 30.153C142.036 30.153 142.522 30.303 142.93 30.603C143.35 30.903 143.656 31.299 143.848 31.791L145.918 30.891C145.714 30.315 145.396 29.811 144.964 29.379C144.532 28.935 144.016 28.593 143.416 28.353C142.816 28.113 142.168 27.993 141.472 27.993C140.5 27.993 139.624 28.215 138.844 28.659C138.076 29.103 137.47 29.709 137.026 30.477C136.582 31.245 136.36 32.115 136.36 33.087C136.36 34.059 136.582 34.935 137.026 35.715C137.47 36.483 138.076 37.095 138.844 37.551C139.624 37.995 140.5 38.217 141.472 38.217ZM152.171 38.109C152.351 38.109 152.549 38.097 152.765 38.073C152.981 38.049 153.173 38.025 153.341 38.001V35.985C153.113 36.021 152.903 36.039 152.711 36.039C152.135 36.039 151.715 35.907 151.451 35.643C151.187 35.379 151.055 35.001 151.055 34.509V30.315H153.305V28.209H151.055V25.977H148.697V26.733C148.697 27.213 148.565 27.579 148.301 27.831C148.037 28.083 147.665 28.209 147.185 28.209H147.005V30.315H148.697V34.635C148.697 35.727 148.997 36.579 149.597 37.191C150.209 37.803 151.067 38.109 152.171 38.109ZM155.143 27.111H157.501V24.591H155.143V27.111ZM155.143 38.001H157.501V28.209H155.143V38.001ZM164.466 38.217C165.414 38.217 166.278 38.001 167.058 37.569C167.838 37.125 168.462 36.519 168.93 35.751C169.398 34.971 169.632 34.089 169.632 33.105C169.632 32.121 169.398 31.245 168.93 30.477C168.474 29.709 167.856 29.103 167.076 28.659C166.296 28.215 165.426 27.993 164.466 27.993C163.494 27.993 162.618 28.215 161.838 28.659C161.058 29.103 160.434 29.709 159.966 30.477C159.51 31.245 159.282 32.121 159.282 33.105C159.282 34.089 159.51 34.965 159.966 35.733C160.434 36.501 161.058 37.107 161.838 37.551C162.63 37.995 163.506 38.217 164.466 38.217ZM164.466 36.057C163.938 36.057 163.464 35.931 163.044 35.679C162.636 35.427 162.312 35.079 162.072 34.635C161.844 34.179 161.73 33.669 161.73 33.105C161.73 32.541 161.844 32.037 162.072 31.593C162.312 31.149 162.636 30.801 163.044 30.549C163.464 30.285 163.938 30.153 164.466 30.153C164.994 30.153 165.456 30.285 165.852 30.549C166.26 30.801 166.578 31.149 166.806 31.593C167.046 32.037 167.166 32.541 167.166 33.105C167.166 33.669 167.046 34.179 166.806 34.635C166.578 35.079 166.26 35.427 165.852 35.679C165.456 35.931 164.994 36.057 164.466 36.057ZM171.42 38.001H173.778V32.259C173.778 31.623 173.958 31.113 174.318 30.729C174.69 30.345 175.17 30.153 175.758 30.153C176.346 30.153 176.82 30.345 177.18 30.729C177.552 31.101 177.738 31.611 177.738 32.259V38.001H180.096V31.701C180.096 30.969 179.94 30.327 179.628 29.775C179.316 29.211 178.878 28.773 178.314 28.461C177.762 28.149 177.126 27.993 176.406 27.993C175.794 27.993 175.242 28.113 174.75 28.353C174.27 28.593 173.898 28.947 173.634 29.415V28.209H171.42V38.001Z" fill="#171313"/>
</svg>
