<svg fill="none" height="513" viewBox="0 0 513 513" width="513" xmlns="http://www.w3.org/2000/svg" xmlns:xlink="http://www.w3.org/1999/xlink"><clipPath id="a"><path d="m33 33h446v446h-446z"/></clipPath><g clip-path="url(#a)" fill="#1f335e"><g fill-opacity=".301437"><path d="m256 114.918c-3.625.013-7.107-1.262-9.67-3.543-2.564-2.281-3.998-5.378-3.983-8.604v-57.6242c0-6.7085 6.113-12.1468 13.653-12.1468s13.653 5.4383 13.653 12.1468v57.6242c0 3.222-1.438 6.312-3.999 8.59-2.56 2.278-6.033 3.557-9.654 3.557z"/><path d="m256 479c-3.625.013-7.107-1.263-9.67-3.544-2.564-2.28-3.998-5.377-3.983-8.603v-57.625c0-6.708 6.113-12.146 13.653-12.146s13.653 5.438 13.653 12.146v57.625c0 3.222-1.438 6.311-3.999 8.589-2.56 2.278-6.033 3.558-9.654 3.558z"/><path d="m321.442 131.52c-2.882-1.581-4.987-4.194-5.85-7.262s-.413-6.338 1.25-9.088l29.649-48.9547c3.475-5.6677 11.083-7.5909 17.033-4.3059s8.012 10.5464 4.616 16.2577l-29.649 48.9549c-1.643 2.752-4.367 4.764-7.567 5.589-3.201.826-6.613.397-9.482-1.191z"/><path d="m190.198 131.497c-2.893 1.611-6.335 2.046-9.562 1.209-3.228-.838-5.975-2.879-7.633-5.671l-29.749-49.8091c-2.534-5.6609-.249-12.2493 5.31-15.3137 5.56-3.0645 12.625-1.6299 16.422 3.3344l30.254 49.6634c1.645 2.837 2.038 6.191 1.09 9.309s-3.157 5.74-6.132 7.278z"/><path d="m363.562 450.064c-2.863 1.602-6.278 2.045-9.486 1.231-3.207-.814-5.94-2.818-7.59-5.565l-29.609-48.921c-2.265-3.687-2.286-8.249-.055-11.954 2.231-3.706 6.372-5.987 10.851-5.977 4.48.009 8.61 2.307 10.824 6.022l29.609 48.921c3.434 5.684 1.402 12.947-4.544 16.243z"/><path d="m131.503 190.552c-1.58 2.884-4.193 4.991-7.26 5.855s-6.337.414-9.086-1.251l-48.9431-29.626c-5.6664-3.478-7.5891-11.092-4.3049-17.048s10.5439-8.02 16.2539-4.62l49.0861 29.675c5.652 3.478 7.553 11.085 4.254 17.015z"/><path d="m450.064 363.562c-3.296 5.946-10.559 7.978-16.243 4.544l-48.921-29.609c-3.715-2.214-6.013-6.344-6.022-10.824-.01-4.479 2.271-8.62 5.977-10.851 3.705-2.231 8.267-2.21 11.954.055l48.921 29.609c2.747 1.65 4.751 4.383 5.565 7.59.814 3.208.371 6.623-1.231 9.486z"/><path d="m114.918 256c0 7.54-5.438 13.653-12.147 13.653h-57.6242c-6.7085 0-12.1468-6.113-12.1468-13.653s5.4383-13.653 12.1468-13.653h57.6242c3.226-.015 6.323 1.419 8.604 3.983 2.281 2.563 3.556 6.045 3.543 9.67z"/><path d="m479 256c0 7.54-5.438 13.653-12.147 13.653h-57.625c-6.708 0-12.146-6.113-12.146-13.653s5.438-13.653 12.146-13.653h57.625c3.226-.015 6.323 1.419 8.603 3.983 2.281 2.563 3.557 6.045 3.544 9.67z"/><path d="m131.505 321.437c1.603 2.895 2.036 6.34 1.203 9.569-.834 3.23-2.864 5.979-5.642 7.638l-49.5501 29.924c-5.6969 2.81-12.5026.563-15.6237-5.159s-1.5066-12.993 3.7065-16.691l49.5503-29.923c5.748-3.394 13.037-1.325 16.356 4.642z"/><path d="m450.103 148.245c3.274 5.936 1.333 13.525-4.337 16.957l-48.947 29.923c-3.689 2.262-8.253 2.284-11.961.055-3.707-2.228-5.99-6.365-5.98-10.839.009-4.474 2.309-8.599 6.026-10.811l48.947-29.574c5.625-3.473 12.874-1.56 16.252 4.289z"/></g><path d="m173.042 441.811-36.596-20.242c-1.534-.851-2.65-2.252-3.102-3.893-.453-1.641-.205-3.386.689-4.852l26.28-39.844c1.874-3.058 5.967-4.108 9.188-2.358l33.312 18.62c2.99 1.83 3.998 5.56 2.309 8.548l-23.097 41.663c-1.849 2.965-5.812 4.006-8.983 2.358z"/><path d="m332.483 215.953c1.179-1.864 1.179-4.229 0-6.094-3.91-6.391-14.184-14.367-32.679-24.772-18.495-10.404-30.976-15.507-38.444-15.556-2.121.015-4.055 1.201-5.012 3.071l-68.065 169.193c-1.215 2.465-.35 5.438 2.004 6.887l20.049 11.395c2.455 1.226 5.447.513 7.067-1.684z"/></g></svg>