<svg width="270" height="294" viewBox="0 0 270 294" fill="none" xmlns="http://www.w3.org/2000/svg">
<path d="M122.89 95.821C115.126 85.7782 104.948 77.4424 99.2388 66.1077C92.8288 53.378 92.8482 38.4943 93.0623 24.2468C93.1328 19.5631 93.2438 14.7198 95.2119 10.4708C97.1799 6.21936 101.533 2.69983 106.189 3.22787C108.741 3.5177 111.044 4.95206 113.584 5.33273C118.332 6.04745 122.734 3.05597 127.26 1.45218C135.817 -1.58105 145.516 0.432922 153.494 4.76538C161.473 9.10031 168.057 15.5524 174.53 21.9184C197.469 44.4822 220.411 67.0459 243.351 89.6121C250.864 97.0024 258.497 104.55 263.436 113.861C271.639 129.319 271.455 148.137 266.717 164.983C261.98 181.828 253.074 197.153 244.254 212.269C241.02 217.811 237.78 223.364 234.072 228.602C220.219 248.156 202.067 265.39 181.814 278.197C164.745 288.993 138.957 302.097 121.222 285.533C109.922 274.979 104.374 258.61 106.929 243.363C109.464 228.238 119.086 215.44 126.045 201.773C143.415 167.669 147.484 127.632 122.89 95.821Z" fill="#D37ECF"/>
<path d="M143.158 153.161C141.843 171.418 139.594 180 137.1 195.251C135.669 203.987 128.345 215.72 140.728 224.822C159.618 238.707 191.422 224.044 208.479 215.72C225.464 207.432 250.941 185.596 259.533 168.203C267.796 151.48 266.872 130.633 252.159 117.932C229.933 98.7485 201.879 85.3329 176.849 70.2179C163.846 62.3661 149.678 52.4792 133.71 53.8154C122.578 54.748 103.715 63.6216 113.499 77.1328C130.481 100.584 145.346 122.786 143.158 153.161Z" fill="black"/>
<path d="M208.483 215.72C225.467 207.431 250.944 185.595 259.535 168.204C261.597 164.031 263.087 159.598 263.934 155.104C242.046 158.839 218.779 161.205 195.867 166.864C160.304 175.654 136.332 193.688 137.01 212.68C137.162 217.012 138.917 221.277 141.613 225.442C160.599 238.255 191.687 223.915 208.483 215.72Z" fill="#873C80"/>
<path d="M146.828 55.071C142.557 53.9482 138.119 53.4461 133.711 53.8147C132.893 53.8825 132.034 53.9948 131.148 54.1473C130.922 54.1748 130.695 54.2087 130.469 54.2426L133.734 79.1663C134.087 79.2935 134.424 79.4714 134.739 79.715C138.058 82.2996 142.678 81.5157 146.669 81.2912C151.527 81.0179 156.495 81.1217 161.177 79.7426C162.157 79.4545 163.087 78.9545 163.812 78.23C164.375 77.6686 164.627 76.7852 165.274 76.3191C165.401 76.2238 165.549 76.1581 165.699 76.1009L163.907 62.4241C158.486 59.3587 152.883 56.664 146.828 55.071Z" fill="white"/>
<path d="M117.493 59.4668C114.3 61.6312 111.281 64.7479 110.83 68.7558C110.487 71.7965 111.745 74.7169 113.497 77.1347C113.842 77.6119 114.185 78.087 114.528 78.56C117.148 81.2249 122.622 80.452 126.04 79.9917C126.79 79.8903 127.606 79.6897 128.442 79.4849C129.65 79.2125 131.096 79.0626 131.961 78.9908L128.759 54.5615C124.769 55.4336 120.805 57.2221 117.493 59.4668Z" fill="white"/>
<path d="M176.85 70.2187C173.182 68.003 169.527 65.6875 165.797 63.5114L167.405 75.7796C170.28 75.6298 173.32 77.1985 176.137 77.2567C178.348 77.3025 183.118 77.1152 188.253 76.9093C184.404 74.702 180.593 72.478 176.85 70.2187Z" fill="white"/>
<path d="M128.762 54.5577L131.963 78.9885C132.423 78.9504 132.72 78.9335 132.723 78.9335C133.072 78.9737 133.409 79.0498 133.734 79.166L130.469 54.2427C129.9 54.3273 129.331 54.4351 128.762 54.5577Z" fill="black"/>
<path d="M163.906 62.4233L165.697 76.1021C165.75 76.0812 165.802 76.0584 165.858 76.0417C166.365 75.8815 166.881 75.8066 167.403 75.7796L165.795 63.5114C165.167 63.1432 164.539 62.7812 163.906 62.4233Z" fill="black"/>
<path d="M109.254 138.944C106.341 149.056 84.7969 170 54.6272 170C24.4574 170 0 152.539 0 131C0 109.461 24.4574 92 54.6272 92C68.754 92 85.3025 95.2172 95 101.5C104.697 107.783 113.368 116.98 126.735 121.611C151.099 130.053 164.921 133.056 187.5 134.5C190.536 139.353 109.254 133.286 109.254 138.944Z" fill="white"/>
</svg>
