<svg width="190" height="328" viewBox="0 0 190 328" fill="none" xmlns="http://www.w3.org/2000/svg">
<path d="M182.432 89.7127C181.745 87.8025 179.46 87.0281 177.91 88.5154C171.08 95.058 168.012 104.106 162.516 111.613C156.221 120.204 145.883 122.227 137.575 128.11C129.155 134.073 123.387 143.081 114.464 148.4C105.412 153.796 94.7313 155.761 84.3379 156.312C75.2467 156.795 66.1555 156.308 57.0643 156.225C79.3609 146.749 101.37 136.348 120.583 121.38C130.976 113.282 140.387 103.938 148.08 93.2047C156.604 81.3056 162.252 67.7326 166.958 53.9369C169.554 46.3283 171.703 38.1662 169.754 30.1411C168.02 23.0194 162.827 16.7451 163.203 9.17166C163.339 6.36609 159.52 5.63968 158.154 7.80215C144.965 28.7171 124.625 43.9215 111.596 64.9582C104.486 76.4376 101.106 89.6454 94.5476 101.391C88.572 112.087 80.3914 121.295 71.3562 129.482C66.2274 134.128 60.827 138.442 55.2908 142.579C62.1132 134.411 68.5761 125.939 74.6396 117.196C81.8614 106.798 88.532 95.9429 93.1016 84.0895C98.5579 69.9503 99.8601 54.8444 100.1 39.8073C100.307 27.221 101.801 12.3561 93.2773 1.97156C92.3347 0.823853 90.4253 1.03369 89.4507 1.97156C75.0789 15.8393 73.1776 36.6621 68.5761 55.0446C65.7641 66.311 61.1066 77.2562 61.4422 89.0728C61.6099 95.0468 61.7058 100.362 59.3811 105.998C57.28 111.106 54.1804 115.755 51.4802 120.55C45.3208 131.48 40.4397 143.117 36.8528 155.139C31.8918 160.36 26.7789 165.439 21.5463 170.4C13.2859 178.232 4.61018 186.695 1.3268 197.962C-1.75686 208.544 0.416097 219.718 9.09188 226.908C13.6055 230.657 18.4228 233.797 22.4091 238.171C26.044 242.149 29.0478 246.662 31.4843 251.465C43.811 275.765 39.1455 304.078 27.6737 327.75C29.7667 327.464 31.8598 327.246 33.9609 327.08C43.2917 306.523 47.6456 283.225 41.1108 261.187C37.9472 250.498 32.387 240.428 24.5021 232.511C20.316 228.308 15.0994 225.387 10.8894 221.26C6.75118 217.208 5.13743 211.73 5.40106 206.027C5.96028 193.655 14.9397 184.213 23.3678 176.143C28.8081 170.935 34.1766 165.68 39.3852 160.276C46.679 170.811 56.8407 179.112 68.664 184.072C83.7148 190.386 99.948 189.778 115.878 188.323C130.585 186.978 146.403 185.862 158.513 176.426C163.458 172.576 167.461 167.563 169.522 161.595C172.222 153.805 170.88 145.423 174.491 137.826C178.118 130.206 182.751 123.528 184.373 115.071C186.003 106.596 185.364 97.8307 182.432 89.7127Z" fill="#A6C5A4"/>
<path d="M187.182 88.5252C186.495 86.615 184.21 85.8406 182.66 87.3279C175.83 93.8705 172.762 102.918 167.266 110.425C160.971 119.017 150.633 121.04 142.325 126.922C133.905 132.886 128.137 141.894 119.214 147.213C110.162 152.608 99.4813 154.574 89.0879 155.125C79.9967 155.608 70.9055 155.121 61.8143 155.037C84.1109 145.562 106.12 135.161 125.333 120.192C135.726 112.094 145.137 102.75 152.83 92.0172C161.354 80.1181 167.002 66.5451 171.708 52.7494C174.304 45.1408 176.453 36.9787 174.504 28.9536C172.77 21.8319 167.577 15.5576 167.953 7.98416C168.089 5.17859 164.27 4.45218 162.904 6.61465C149.715 27.5296 129.375 42.734 116.346 63.7707C109.236 75.2501 105.856 88.4579 99.2976 100.203C93.322 110.899 85.1414 120.107 76.1062 128.294C70.9774 132.94 65.577 137.254 60.0408 141.392C66.8632 133.224 73.3261 124.751 79.3896 116.008C86.6114 105.61 93.282 94.7554 97.8516 82.902C103.308 68.7628 104.61 53.6569 104.85 38.6198C105.057 26.0335 106.551 11.1686 98.0273 0.784058C97.0847 -0.363647 95.1753 -0.153809 94.2007 0.784058C79.8289 14.6518 77.9276 35.4746 73.3261 53.8571C70.5141 65.1235 65.8566 76.0687 66.1922 87.8853C66.3599 93.8593 66.4558 99.1749 64.1311 104.81C62.03 109.918 58.9304 114.568 56.2302 119.363C50.0708 130.293 45.1897 141.929 41.6028 153.951C36.6418 159.173 31.5289 164.252 26.2963 169.213C18.0359 177.044 9.36018 185.507 6.0768 196.774C2.99314 207.356 5.1661 218.53 13.8419 225.721C18.3555 229.47 23.1728 232.609 27.1591 236.983C30.794 240.961 33.7978 245.474 36.2343 250.278C48.561 274.578 43.8955 302.891 32.4237 326.562C34.5167 326.277 36.6098 326.059 38.7109 325.892C48.0417 305.335 52.3956 282.038 45.8608 260C42.6972 249.311 37.137 239.24 29.2521 231.323C25.066 227.121 19.8494 224.2 15.6394 220.072C11.5012 216.02 9.88743 210.542 10.1511 204.84C10.7103 192.468 19.6897 183.025 28.1178 174.955C33.5581 169.748 38.9266 164.492 44.1352 159.088C51.429 169.624 61.5907 177.924 73.414 182.884C88.4648 189.199 104.698 188.591 120.628 187.135C135.335 185.791 151.153 184.674 163.263 175.239C168.208 171.389 172.211 166.375 174.272 160.408C176.972 152.618 175.63 144.236 179.241 136.638C182.868 129.018 187.501 122.34 189.123 113.884C190.753 105.408 190.114 96.6432 187.182 88.5252Z" fill="#009975"/>
</svg>
