<svg width="124" height="32" viewBox="0 0 124 32" fill="none" xmlns="http://www.w3.org/2000/svg">
<path d="M116.724 9.16685C116.24 9.26375 116.046 9.16684 115.852 9.26375C107.325 13.8182 98.2157 16.8222 89.2037 20.1169C79.901 23.5085 70.5983 26.9001 60.908 29.2258C55.4814 30.3886 50.0549 31.4546 44.5314 31.2608C42.884 31.1639 41.1398 30.9701 39.4924 30.3886C36.1977 29.3227 34.8411 26.4156 36.1008 23.1209C36.5853 21.7643 37.3605 20.5045 38.3296 19.3417C39.7831 17.5005 41.4305 15.8532 42.9809 14.1089C43.7562 13.2368 44.5314 12.3646 45.2097 11.3956C46.4694 9.45755 46.0818 7.9071 44.2407 6.64736C42.3995 5.38762 40.2676 4.9031 38.1358 4.7093C35.0349 4.51549 32.1278 5.09691 29.2207 5.96904C22.8251 7.9071 16.7202 10.6204 11.0998 14.2058C8.77411 15.6594 6.44843 17.016 4.12275 18.3726C3.34753 18.8572 2.3785 19.1479 1.50637 19.2448C1.02185 19.3417 0.149724 18.8572 0.0528205 18.4695C-0.140986 17.985 0.246627 17.2098 0.440433 16.6284C0.537336 16.4346 0.828046 16.3377 1.02185 16.2408C4.60727 13.8182 8.28959 11.2987 12.1657 8.97304C18.6582 5.00001 25.6353 1.99601 33.1937 0.445559C36.7791 -0.232763 40.3645 -0.232765 43.7562 1.12388C45.3066 1.7053 46.8571 2.57743 48.1168 3.64336C51.0239 6.16285 51.6053 9.84517 49.6672 13.1399C48.6982 14.7872 47.3416 16.2408 46.0818 17.6943C44.6283 19.5355 43.0778 21.2797 41.6243 23.024C41.2367 23.5085 41.0429 24.2837 40.7522 24.8652C41.7212 25.8342 42.884 25.6404 43.95 25.7373C49.8611 25.8342 55.6752 24.8652 61.3925 23.1209C73.2147 19.5355 84.94 15.7563 96.6653 12.0739C101.22 10.6204 105.774 9.26375 110.716 7.7133C110.038 7.42259 109.65 7.22878 109.166 7.03497C107.325 6.45355 105.483 5.96904 103.642 5.29072C102.867 5.00001 102.092 4.61239 101.414 4.03098C100.638 3.44956 100.348 2.48052 100.929 1.7053C101.317 1.12388 102.092 0.736267 102.77 0.542459C103.449 0.348654 104.127 0.542461 104.805 0.736267C110.135 2.09291 115.465 3.35265 120.794 4.8062C123.507 5.58143 124.477 7.71329 123.12 10.2328C122.442 11.5894 121.473 12.9461 120.31 13.9151C116.24 17.6943 111.976 21.3766 107.712 24.9621C106.937 25.6404 105.871 26.2218 104.902 26.6094C103.739 26.997 102.964 26.2218 103.545 25.1559C104.321 23.7023 105.193 22.1519 106.356 20.8921C108.972 17.985 111.685 15.2717 114.302 12.4616C114.98 11.6863 115.658 11.008 116.337 10.2328C116.337 9.94207 116.434 9.65136 116.724 9.16685Z" fill="black"/>
</svg>
