<svg width="298" height="18" viewBox="0 0 298 18" fill="none" xmlns="http://www.w3.org/2000/svg">
<g clip-path="url(#clip0_695_735)">
<path d="M249.089 9.3765C241.078 9.51633 233.034 9.79522 225.161 9.79417C203.047 9.90321 180.755 9.83071 158.641 9.93974C146.849 10.0071 135.054 9.88984 123.411 10.4162C103.58 11.0393 83.6179 12.1263 63.7931 13.0725C52.0087 13.5551 40.055 14.3639 28.2738 15.0311C24.8479 15.2294 21.2471 15.4307 17.6286 14.6168C17.9515 15.0728 18.3134 15.7589 18.8064 15.9349C20.9508 16.4976 23.2376 17.1963 25.5465 17.156C32.2656 17.1772 39.1548 16.9184 45.8691 16.6627C58.8079 16.1599 71.7387 15.1957 84.6767 14.6467C104.154 13.8451 123.63 12.9512 143.15 12.6105C163.79 12.2502 184.758 12.6228 205.575 12.3979C222.789 12.2359 239.961 11.6592 257.17 11.2204C265.039 10.9445 272.729 10.4872 280.421 10.076C283.707 9.88011 286.812 9.3643 289.921 9.03307C290.41 9.02452 290.895 8.73909 291.869 8.39897C290.027 7.09246 287.606 8.75035 286.419 6.87848C285.144 8.05474 283.64 8.081 282.031 8.10909C275.799 7.9409 269.744 7.86195 263.512 7.69376C245.161 6.86006 226.602 6.12231 208.25 5.28861C207.271 5.30571 206.289 5.18437 205.301 4.74C212.823 4.60871 220.204 4.47987 227.76 4.34797C235.634 4.34902 243.336 4.53771 251.209 4.53876C258.908 4.54286 266.429 4.41158 274.166 4.59966C281.69 4.60681 289.254 4.93638 296.63 4.48451C296.8 4.20458 296.794 3.88155 296.79 3.60467C296.122 3.47783 295.63 3.34794 294.962 3.17496C270.884 2.99516 246.768 2.67753 222.692 2.68232C201.38 2.59273 179.928 2.55172 158.623 2.92359C138.646 3.13382 118.635 3.4831 98.4958 4.43473C79.0184 5.23632 59.5483 6.45323 40.0432 7.67075C28.2644 8.47644 16.3132 9.42362 4.53604 10.3216C3.3816 10.3418 2.232 10.6388 1.12302 11.2582C4.41383 11.3393 7.84778 11.6025 11.1329 11.3605C32.0828 10.7178 53.0621 9.75155 74.012 9.1089C103.008 8.32581 131.99 6.75822 160.974 7.314C176.2 7.50984 191.628 7.24056 206.855 7.52869C220.961 7.74408 234.896 8.19325 248.972 8.68613C248.907 8.96423 248.909 9.10267 249.089 9.3765ZM201.308 4.53273C201.311 4.67117 201.311 4.67117 201.313 4.80961C195.261 4.91525 189.034 5.02394 182.982 5.12958C182.98 4.99114 182.98 4.99114 182.977 4.85269C189.029 4.74706 195.082 4.64142 201.308 4.53273Z" fill="#D82086"/>
</g>
<defs>
<clipPath id="clip0_695_735">
<rect width="296" height="12" fill="white" transform="matrix(0.999848 -0.0174524 -0.0174524 -0.999848 1.12891 17.582)"/>
</clipPath>
</defs>
</svg>
