<?xml version="1.0" encoding="UTF-8"?>
<svg width="10px" height="16px" viewBox="0 0 10 16" version="1.1" xmlns="http://www.w3.org/2000/svg" xmlns:xlink="http://www.w3.org/1999/xlink">
    <title>Path</title>
    <g id="Examples" stroke="none" stroke-width="1" fill="none" fill-rule="evenodd">
        <g id="Personio" transform="translate(-103.000000, -2578.000000)" fill="#000000" fill-rule="nonzero" stroke="#000000">
            <g id="Measures-Section" transform="translate(85.000000, 1787.000000)">
                <g id="Nav" transform="translate(0.000000, 778.000000)">
                    <g id="Group-10" transform="translate(19.000000, 14.000000)">
                        <path d="M0.260349528,0.256281566 C0.568911931,-0.0474595493 1.04788864,-0.0812085622 1.39432089,0.155034528 L1.51742825,0.256281566 L7.73965047,6.38128157 C8.04821288,6.68502268 8.08249759,7.15651538 7.84250461,7.49753463 L7.73965047,7.61871843 L1.51742825,13.7437184 C1.17029555,14.0854272 0.607482232,14.0854272 0.260349528,13.7437184 C-0.0482128755,13.4399773 -0.082497587,12.9684846 0.157495393,12.6274654 L0.260349528,12.5062816 L5.85422222,7 L0.260349528,1.49371843 C-0.0482128755,1.18997732 -0.082497587,0.718484616 0.157495393,0.37746537 L0.260349528,0.256281566 Z" id="Path" transform="translate(4.000000, 7.000000) scale(-1, 1) translate(-4.000000, -7.000000) "></path>
                    </g>
                </g>
            </g>
        </g>
    </g>
</svg>