<?xml version="1.0" encoding="UTF-8"?>
<svg width="13px" height="13px" viewBox="0 0 13 13" version="1.1" xmlns="http://www.w3.org/2000/svg" xmlns:xlink="http://www.w3.org/1999/xlink">
    <title>-stopwatch</title>
    <g id="Colors" stroke="none" stroke-width="1" fill="none" fill-rule="evenodd">
        <g id="blue-copy-2" transform="translate(-912.000000, -696.000000)" fill="#FDFAF5" fill-rule="nonzero">
            <g id="-stopwatch" transform="translate(912.000000, 696.000000)">
                <path d="M10.31875,0.24375 C9.99375,-0.08125 9.50625,-0.08125 9.18125,0.24375 C8.85625,0.56875 8.85625,1.05625 9.18125,1.38125 L9.83125,2.03125 L9.1,2.7625 C8.125,2.03125 6.9875,1.625 5.6875,1.625 C2.51875,1.625 0,4.14375 0,7.3125 C0,10.48125 2.51875,13 5.6875,13 C8.85625,13 11.375,10.48125 11.375,7.3125 C11.375,6.0125 10.96875,4.875 10.2375,3.9 L10.96875,3.16875 L11.61875,3.81875 C11.78125,3.98125 11.94375,4.0625 12.1875,4.0625 C12.43125,4.0625 12.59375,3.98125 12.75625,3.81875 C13.08125,3.49375 13.08125,3.00625 12.75625,2.68125 L10.31875,0.24375 Z M5.6875,11.375 C3.4125,11.375 1.625,9.5875 1.625,7.3125 C1.625,5.0375 3.4125,3.25 5.6875,3.25 C7.9625,3.25 9.75,5.0375 9.75,7.3125 C9.75,9.5875 7.9625,11.375 5.6875,11.375 Z" id="Shape"></path>
                <polygon id="Path" points="6.5 4.875 4.875 4.875 4.875 8.125 8.125 8.125 8.125 6.5 6.5 6.5"></polygon>
            </g>
        </g>
    </g>
</svg>