<?xml version="1.0" encoding="UTF-8"?>
<svg width="14px" height="11px" viewBox="0 0 14 11" version="1.1" xmlns="http://www.w3.org/2000/svg" xmlns:xlink="http://www.w3.org/1999/xlink">
    <title>kg</title>
    <g id="Colors" stroke="none" stroke-width="1" fill="none" fill-rule="evenodd">
        <g id="blue-copy-2" transform="translate(-1080.000000, -698.000000)" fill="#FDFAF5" fill-rule="nonzero">
            <path d="M1082.72,706 L1082.72,703.75 L1084.11,706 L1086.76,706 L1084.6,703.2 L1086.71,700.36 L1084.13,700.36 L1082.72,702.47 L1082.72,698.6 L1080.5,698.6 L1080.5,706 L1082.72,706 Z M1090.18,708.77 C1090.85333,708.77 1091.405,708.64 1091.835,708.38 C1092.265,708.12 1092.57667,707.773333 1092.77,707.34 C1092.96333,706.906667 1093.06,706.426667 1093.06,705.9 L1093.06,705.9 L1093.06,700.36 L1090.85,700.36 L1090.85,701.13 C1090.71,700.87 1090.50667,700.665 1090.24,700.515 C1089.97333,700.365 1089.65667,700.29 1089.29,700.29 C1088.85,700.29 1088.45333,700.405 1088.1,700.635 C1087.74667,700.865 1087.46833,701.198333 1087.265,701.635 C1087.06167,702.071667 1086.96,702.586667 1086.96,703.18 C1086.96,703.773333 1087.06167,704.288333 1087.265,704.725 C1087.46833,705.161667 1087.74667,705.495 1088.1,705.725 C1088.45333,705.955 1088.85,706.07 1089.29,706.07 C1089.65667,706.07 1089.97333,705.995 1090.24,705.845 C1090.50667,705.695 1090.71,705.49 1090.85,705.23 L1090.85,705.23 L1090.85,705.9 C1090.85,706.266667 1090.77667,706.516667 1090.63,706.65 C1090.48333,706.783333 1090.28,706.85 1090.02,706.85 C1089.6,706.85 1089.36,706.703333 1089.3,706.41 L1089.3,706.41 L1087.12,706.41 C1087.19333,707.136667 1087.495,707.711667 1088.025,708.135 C1088.555,708.558333 1089.27333,708.77 1090.18,708.77 Z M1090.03,704.13 C1089.79,704.13 1089.59333,704.046667 1089.44,703.88 C1089.28667,703.713333 1089.21,703.48 1089.21,703.18 C1089.21,702.88 1089.28667,702.646667 1089.44,702.48 C1089.59333,702.313333 1089.79,702.23 1090.03,702.23 C1090.27,702.23 1090.46667,702.313333 1090.62,702.48 C1090.77333,702.646667 1090.85,702.88 1090.85,703.18 C1090.85,703.48 1090.77333,703.713333 1090.62,703.88 C1090.46667,704.046667 1090.27,704.13 1090.03,704.13 Z" id="kg"></path>
        </g>
    </g>
</svg>