<?xml version="1.0" encoding="UTF-8"?>
<svg width="50px" height="50px" viewBox="0 0 50 50" version="1.1" xmlns="http://www.w3.org/2000/svg" xmlns:xlink="http://www.w3.org/1999/xlink">
    <title>2p</title>
    <g id="2p" stroke="none" stroke-width="1" fill="none" fill-rule="evenodd">
        <g id="Group" transform="translate(11.000000, 9.000000)" fill="#070707" fill-rule="nonzero">
            <g id="no-contact">
                <path d="M7.8,9.6 L5.4,9.6 C2.4190331,9.60330668 0.00330667738,12.0190331 -8.98867731e-06,15 L-8.98867731e-06,21 C-0.00124728311,21.2284954 0.127398383,21.4378645 0.3318,21.54 L2.4258,22.587 L2.99999101,30.6426 C3.02239411,30.9572282 3.28457686,31.200796 3.6,31.2000019 L9.6,31.2000019 C9.91542314,31.200796 10.1776059,30.9572282 10.2,30.6426 L10.776,22.584 L12.87,21.537 C13.0727318,21.4348434 13.2004473,21.2270153 13.2000012,21 L13.2000012,15 C13.1966933,12.0190331 10.7809669,9.60330668 7.8,9.6 Z" id="Path"></path>
                <circle id="Oval" cx="6.6" cy="4.2" r="4.2"></circle>
            </g>
            <g id="no-contact" transform="translate(14.000000, 0.000000)">
                <path d="M7.8,9.6 L5.4,9.6 C2.4190331,9.60330668 0.00330667738,12.0190331 -8.98867731e-06,15 L-8.98867731e-06,21 C-0.00124728311,21.2284954 0.127398383,21.4378645 0.3318,21.54 L2.4258,22.587 L2.99999101,30.6426 C3.02239411,30.9572282 3.28457686,31.200796 3.6,31.2000019 L9.6,31.2000019 C9.91542314,31.200796 10.1776059,30.9572282 10.2,30.6426 L10.776,22.584 L12.87,21.537 C13.0727318,21.4348434 13.2004473,21.2270153 13.2000012,21 L13.2000012,15 C13.1966933,12.0190331 10.7809669,9.60330668 7.8,9.6 Z" id="Path"></path>
                <circle id="Oval" cx="6.6" cy="4.2" r="4.2"></circle>
            </g>
        </g>
    </g>
</svg>