<?xml version="1.0" encoding="UTF-8"?>
<svg width="50px" height="50px" viewBox="0 0 50 50" version="1.1" xmlns="http://www.w3.org/2000/svg" xmlns:xlink="http://www.w3.org/1999/xlink">
    <title>4p</title>
    <g id="4p" stroke="none" stroke-width="1" fill="none" fill-rule="evenodd">
        <g id="Group-2" transform="translate(0.000000, 9.000000)" fill-rule="nonzero">
            <g id="Group" fill="#070707">
                <g id="no-contact">
                    <path d="M7.8,9.6 L5.4,9.6 C2.4190331,9.60330668 0.00330667738,12.0190331 -8.98867731e-06,15 L-8.98867731e-06,21 C-0.00124728311,21.2284954 0.127398383,21.4378645 0.3318,21.54 L2.4258,22.587 L2.99999101,30.6426 C3.02239411,30.9572282 3.28457686,31.200796 3.6,31.2000019 L9.6,31.2000019 C9.91542314,31.200796 10.1776059,30.9572282 10.2,30.6426 L10.776,22.584 L12.87,21.537 C13.0727318,21.4348434 13.2004473,21.2270153 13.2000012,21 L13.2000012,15 C13.1966933,12.0190331 10.7809669,9.60330668 7.8,9.6 Z" id="Path"></path>
                    <circle id="Oval" cx="6.6" cy="4.2" r="4.2"></circle>
                </g>
                <g id="no-contact" transform="translate(10.000000, 0.000000)" stroke="#FFFFFF">
                    <path d="M7.80055463,9.10000031 C9.42889255,9.10180656 10.9028506,9.76249875 11.970176,10.8298239 C13.0375014,11.897149 13.698194,13.3711072 13.7000012,15 L13.7000012,15 L13.7000012,21.2705565 L11.2570522,22.8669382 L10.6682367,31.1048351 L3.16874734,31.7382033 L1.96604628,22.9161401 L-0.1527737,21.8567301 L-0.500008891,15.0126776 C-0.501773323,13.3790928 0.159606758,11.9000384 1.22982418,10.8298227 C2.29715045,9.76249825 3.77110805,9.10180656 5.4,9.1 L5.4,9.1 Z" id="Path"></path>
                    <circle id="Oval" cx="6.6" cy="4.2" r="4.7"></circle>
                </g>
                <g id="no-contact" transform="translate(20.000000, 0.000000)" stroke="#FFFFFF">
                    <path d="M7.80055463,9.10000031 C9.42889255,9.10180656 10.9028506,9.76249875 11.970176,10.8298239 C13.0375014,11.897149 13.698194,13.3711072 13.7000012,15 L13.7000012,15 L13.7000012,21.2705565 L11.2570522,22.8669382 L10.6682367,31.1048351 L3.16874734,31.7382033 L1.96604628,22.9161401 L-0.1527737,21.8567301 L-0.500008891,15.0126776 C-0.501773323,13.3790928 0.159606758,11.9000384 1.22982418,10.8298227 C2.29715045,9.76249825 3.77110805,9.10180656 5.4,9.1 L5.4,9.1 Z" id="Path"></path>
                    <circle id="Oval" cx="6.6" cy="4.2" r="4.7"></circle>
                </g>
                <g id="no-contact" transform="translate(30.000000, 0.000000)" stroke="#FFFFFF">
                    <path d="M7.80055463,9.10000031 C9.42889255,9.10180656 10.9028506,9.76249875 11.970176,10.8298239 C13.0375014,11.897149 13.698194,13.3711072 13.7000012,15 L13.7000012,15 L13.7000012,21.2705565 L11.2570522,22.8669382 L10.6682367,31.1048351 L3.16874734,31.7382033 L1.96604628,22.9161401 L-0.1527737,21.8567301 L-0.500008891,15.0126776 C-0.501773323,13.3790928 0.159606758,11.9000384 1.22982418,10.8298227 C2.29715045,9.76249825 3.77110805,9.10180656 5.4,9.1 L5.4,9.1 Z" id="Path"></path>
                    <circle id="Oval" cx="6.6" cy="4.2" r="4.7"></circle>
                </g>
            </g>
            <g id="c-add" transform="translate(36.000000, 10.000000)">
                <path d="M7,0 C3.15,0 0,3.15 0,7 C0,10.85 3.15,14 7,14 C10.85,14 14,10.85 14,7 C14,3.15 10.85,0 7,0 Z" id="Shape" fill="#005C6C"></path>
                <polygon id="Path" fill="#FFFFFF" points="10.5 7.875 7.875 7.875 7.875 10.5 6.125 10.5 6.125 7.875 3.5 7.875 3.5 6.125 6.125 6.125 6.125 3.5 7.875 3.5 7.875 6.125 10.5 6.125"></polygon>
            </g>
        </g>
    </g>
</svg>