<svg width="161" height="50" viewBox="0 0 161 50" fill="none" xmlns="http://www.w3.org/2000/svg">
<g clip-path="url(#clip0_126_2)">
<path d="M155.136 1.38889H6.36114C3.61506 1.38889 1.38892 3.61503 1.38892 6.36111V43.6389C1.38892 46.385 3.61506 48.6111 6.36114 48.6111H155.136C157.882 48.6111 160.108 46.385 160.108 43.6389V6.36111C160.108 3.61503 157.882 1.38889 155.136 1.38889Z" fill="white" stroke="#DEDEDE"/>
<path d="M143.84 28.6722C142.642 26.0528 139.65 24.8569 135.813 24.5444H134.074C132.383 24.7528 131.421 25.5167 131.403 27.5792C133.77 28.7597 133.685 31.0472 132.789 34.0306C132.62 34.7944 132.502 35.5389 132.383 36.2847L131.302 37.2917C130.745 39.0083 133.042 39.4236 134.8 39.2681C135.715 39.134 136.574 38.7494 137.283 38.1569C137.504 37.9333 137.453 37.2917 137.554 36.9958C138.113 36.5625 139.329 36.6486 139.988 36.3889C141.486 35.8565 142.784 34.8755 143.706 33.5792C144.67 32.0889 144.467 30.0597 143.824 28.6722H143.84V28.6722ZM140.377 32.2444C139.326 33.5666 137.927 34.5695 136.338 35.1403L136.168 35.1236C136.102 32.6611 138.196 27.6653 136.168 26.8681C136 26.1403 137.436 26.4347 138.078 26.2792C138.856 26.4875 139.599 26.6431 140.106 27.1111C141.256 28.1694 141.458 30.6833 140.377 32.2444V32.2444ZM105.75 22.3764C106.257 22.4292 106.713 22.4639 106.882 22.7931C107.322 23.6958 107.052 25.0819 107.17 26.2097L107.424 29.4L107.778 30.7889C108.32 30.4417 108.539 29.6083 108.86 28.9139C109.738 26.9556 110.482 24.6653 112.054 23.5389C112.56 23.1569 114.217 22.6889 114.875 23.4861C114.672 24.5278 114.031 25.6542 113.574 26.4694L110.549 33.5278L109.604 36.65C109.367 37.3944 109.433 38.2611 109.028 38.8C108.183 38.9556 107.153 38.9736 106.493 39.3889C105.547 37.8472 105.547 35.7472 104.922 33.875L104.061 31.7417C103.57 31.9319 103.435 33.025 103.214 33.5444C102.827 34.3597 101.525 38.1417 101.07 38.4889C100.646 38.7653 100.156 38.6611 99.5654 38.7653C99.0237 38.8347 98.5001 38.7472 98.1626 38.4528C97.9599 37.0653 97.9932 35.6264 97.7571 34.325C97.1487 31.1167 95.8974 26.7125 97.1987 22.775C97.7404 22.6708 98.9571 22.2889 99.6835 22.6889C100.95 23.625 100.275 28.5333 101.103 30.1472C101.136 30.1472 101.171 30.1472 101.204 30.1111C101.863 27.2319 103.52 23.3125 105.75 22.3764V22.3764ZM128.413 25.9667L127.178 26.0875C125.15 26.7819 123.6 28.4764 123.054 30.5972L122.988 30.6319C122.986 29.8141 122.786 29.0088 122.407 28.2844C122.027 27.56 121.478 26.9379 120.807 26.4708C120.145 26.0134 119.379 25.7293 118.579 25.6443C117.779 25.5594 116.971 25.6764 116.228 25.9847C113.675 26.8681 112.983 29.6944 111.986 32.5917C111.647 33.6319 111.14 35.4181 111.513 36.6333C112.864 41.2111 118.915 38.5222 120.707 36.3722C121.349 35.6083 121.686 34.4819 122.363 33.7361L122.413 33.6486C122.413 35.0014 122.345 36.9097 123.139 37.5681C123.596 37.9333 124.475 38.1236 125.235 38.0889C127.939 37.8806 129.054 37.5861 130.507 35.8528C132.89 32.9903 133.06 26.3306 128.413 25.9667V25.9667ZM119.236 31.7764C118.847 33.4236 117.461 37.7597 115.518 36.9264C114.588 36.5458 114.875 34.8292 115.146 33.7361C115.957 30.5792 116.497 29.4 118.527 27.8222C119.202 28.1 119.54 30.4931 119.235 31.7764H119.236ZM126.756 35.8875L126.131 35.8347C125.674 35.5389 125.353 34.5333 125.658 33.7361C126.288 31.9361 127.033 30.1806 127.888 28.4806C128.328 28.6722 128.328 29.175 128.496 29.6431C129.24 31.7069 127.956 35.0181 126.756 35.8861V35.8875ZM92.4335 25.6375C93.1432 25.6889 93.8362 25.8458 94.1071 26.2958C94.7821 27.4931 93.5321 33.1806 93.1932 34.7944C92.9237 35.9736 93.3974 36.9958 93.3626 38.0028C92.821 38.2972 90.439 38.8694 89.9835 38.3667C89.5265 37.8986 89.6612 36.9778 89.4085 36.3375C88.9362 35.1569 88.2251 33.4764 87.2112 32.8L86.789 34.7069C86.5696 37.0819 87.1265 38.2625 84.7099 38.2792C84.2029 38.2792 83.714 38.3319 83.3918 38.0708C83.2237 34.7236 83.3918 30.2153 84.6932 27.6139C85.0987 26.7639 85.3015 25.7069 86.2987 25.6028C87.9557 25.4292 88.7668 26.5389 89.0876 27.6486C89.3404 28.5153 89.0876 29.8153 90.1515 29.9903L90.2876 29.9556C91.0821 29.3833 90.5071 27.6139 90.9626 26.625C91.2848 25.9306 91.7571 25.9306 92.4335 25.6375V25.6375ZM83.2071 26.7986C82.4626 26.5556 81.3473 26.4514 80.689 26.2097C79.8946 27.7694 79.5057 30.3361 79.2862 32.6264C78.6612 32.4875 78.171 32.0542 77.664 31.7931L76.0585 31.1861H75.9571C76.1432 30.1111 78.5265 28.7764 77.9001 27.7875C76.5487 25.6208 71.0724 25.1 68.8418 26.3486C68.3696 26.6083 67.6251 26.7125 67.4223 27.3194C67.2529 27.8389 67.8279 28.4458 67.8946 28.95C67.964 29.4528 67.8112 29.9903 67.7279 30.4403H67.6932C66.8473 29.5736 67.0682 27.9958 65.8848 27.4056C60.1723 24.4583 57.4015 29.6597 56.996 35.4181C56.489 35.0708 56.2348 34.3944 55.864 33.9444C53.0751 30.6486 55.2043 30.025 57.4015 28.0833C57.9751 27.5625 59.4973 26.2611 58.7029 24.8917C58.0265 23.7292 56.0154 24.1458 54.4432 23.7292C50.946 22.775 46.146 23.9542 44.7265 26.0347L44.6765 26.5736C44.996 27.3014 47.2612 26.9208 48.039 26.9208L48.0723 26.9722C46.721 29.8167 46.6362 34.6028 46.9918 37.8986C47.8362 38.2458 49.0196 38.7125 49.7626 37.9153C50.1001 36.6847 50.1001 34.9667 50.1515 33.6486L50.3876 29.7819L50.7085 26.3653C50.6418 26.0708 50.4223 25.8444 50.389 25.4806C51.1321 24.4056 54.2918 24.4403 55.4918 25.3597C55.5085 27.6139 53.0751 28.4458 51.7237 29.2264L50.4223 30.0597C50.4223 30.8236 50.9293 31.5681 51.2001 32.1403C52.0779 33.9958 53.8348 37.4986 55.6612 38.3139C56.5223 38.7306 57.2154 37.8278 58.0265 38.0361C59.7668 38.4875 61.0682 39.2167 62.8765 38.4528C64.0524 37.9412 65.0852 37.1497 65.8848 36.1472C66.3404 35.5736 66.5432 34.3778 67.1182 33.9264C67.6598 35.1931 66.8307 37.8806 67.2876 39.3542C67.7946 39.5972 69.9071 39.1819 70.7015 39.0069C72.5948 38.6046 74.4098 37.8963 76.0751 36.9097L78.8612 35.2778L78.9807 35.3306C78.8793 36.5264 78.7265 37.9833 79.471 38.4861C80.1126 38.9375 81.5654 38.8847 81.921 38.3306C82.2918 37.7583 82.2085 36.9417 82.4626 36.1792C83.0182 34.4986 83.7126 28.2375 83.2057 26.8153V26.7972L83.2071 26.7986ZM62.9279 35.4181C62.589 35.8514 61.914 36.7361 61.1529 36.4597C59.9196 35.8514 60.7807 30.7708 61.4571 29.7472C61.6932 29.3833 62.014 29.1917 62.3876 28.95C65.6487 29.2278 64.1265 33.9444 62.9279 35.4181V35.4181ZM71.2585 30.6319C71.4279 28.8972 71.8168 28.7236 70.9376 27.5972C71.5793 26.7292 73.6418 27.1458 74.2848 27.8056C74.5376 29.5389 72.6612 30.7181 71.2585 30.6319V30.6319ZM75.146 34.6208C73.8807 35.7653 72.3682 36.5861 70.7348 37.0139C70.4807 36.7014 70.5154 36.3722 70.4293 35.8861C70.1598 34.5361 71.0071 33.2167 72.3237 32.9375L73.6251 33.025L74.7737 32.5736L75.3487 32.6778C76.0918 33.1639 75.5515 34.1861 75.146 34.6375V34.6208V34.6208Z" fill="#A8CA24"/>
<path d="M50.3542 15.5H47.4834V17.5667H50.8473V18.8542H45.9875V11.1153H50.8306V12.4208H47.4834V14.25H50.3542V15.5194V15.5014V15.5ZM52.9709 13.1083L53.0223 13.7431C53.4139 13.2528 53.9237 13.0181 54.5681 13.0181C55.2653 13.0181 55.7417 13.2903 55.9959 13.8694C56.3875 13.2903 56.9125 13 57.6098 13C58.2056 13 58.6292 13.1806 58.9181 13.5431C59.207 13.9056 59.3431 14.45 59.3431 15.175V18.8542H57.8987V15.1931C57.8987 14.8667 57.8487 14.6306 57.7292 14.4681C57.6098 14.3222 57.3889 14.25 57.1 14.25C56.6584 14.25 56.3695 14.4681 56.2 14.9028V18.8542H54.7723V15.1931C54.7723 14.8667 54.7042 14.6306 54.5862 14.4681C54.4667 14.3222 54.2459 14.25 53.957 14.25C53.5487 14.25 53.2431 14.4306 53.0737 14.7944V18.8542H51.6292V13.1083H52.9889H52.9709V13.1083ZM65.3084 16.0264C65.3084 16.9319 65.1209 17.6208 64.7473 18.1653C64.3723 18.7083 63.8639 18.9625 63.2181 18.9625C62.9643 18.9697 62.7124 18.9177 62.4822 18.8106C62.2519 18.7036 62.0498 18.5445 61.8917 18.3458V21.0653H60.4653V13.1083H61.7903L61.8417 13.6708C62.1723 13.2347 62.675 12.9861 63.2014 13C63.8806 13 64.3903 13.2708 64.7639 13.7972C65.1209 14.3042 65.3084 15.0292 65.3084 15.9542V16.0264V16.0264ZM63.8639 15.9181C63.8639 15.3736 63.7778 14.975 63.6084 14.6847C63.5326 14.5456 63.4189 14.4309 63.2804 14.354C63.142 14.277 62.9846 14.241 62.8264 14.25C62.3848 14.25 62.0625 14.4306 61.8917 14.7944V17.15C62.0625 17.5306 62.4028 17.7306 62.8445 17.7306C63.5237 17.7306 63.8639 17.1139 63.8639 15.9181V15.9181ZM66.6 18.8542V14.2319H65.8V13.1083H66.5987V12.6194C66.5987 11.9847 66.7695 11.4778 67.1084 11.1153C67.4487 10.7528 67.9584 10.5708 68.5709 10.5708C68.7737 10.5708 69.0125 10.6264 69.3014 10.6972V11.8764C69.1564 11.8454 69.0079 11.8332 68.8598 11.8403C68.3153 11.8403 68.0431 12.1111 68.0431 12.6556V13.1083H69.1139V14.2333H68.0445V18.8542H66.6V18.8542ZM69.6417 15.9361C69.6417 15.3556 69.7431 14.8486 69.9473 14.3944C70.15 13.9597 70.457 13.6167 70.8306 13.3625C71.2209 13.1264 71.6792 13 72.1889 13C72.9028 13 73.4987 13.2361 73.957 13.725C74.4153 14.1958 74.6709 14.8306 74.7209 15.6458L74.7389 16.0444C74.7389 16.9139 74.5 17.6208 74.0584 18.1653C73.5834 18.7083 72.9709 18.9625 72.1889 18.9625C71.4084 18.9625 70.7959 18.6903 70.3209 18.1653C69.8625 17.6208 69.6403 16.8958 69.6403 15.9903V15.9361H69.6417ZM71.0681 16.0444C71.0681 16.5875 71.1695 17.0056 71.357 17.2944C71.4467 17.4326 71.5705 17.5454 71.7165 17.6218C71.8624 17.6982 72.0256 17.7356 72.1903 17.7306C72.3524 17.7352 72.513 17.6974 72.656 17.6209C72.799 17.5444 72.9195 17.4319 73.0056 17.2944C73.2098 17.0056 73.2945 16.5694 73.2945 15.9361C73.2945 15.3917 73.2098 14.975 73.0056 14.6861C72.9178 14.5461 72.7944 14.4319 72.648 14.3552C72.5016 14.2786 72.3374 14.2423 72.1723 14.25C72.0106 14.2471 71.8509 14.2855 71.7082 14.3616C71.5656 14.4376 71.4447 14.5489 71.357 14.6847C71.1695 14.9764 71.0681 15.4097 71.0681 16.0444ZM77.0153 13.7431C77.4056 13.2528 77.882 13.0181 78.4598 13.0181C79.6487 13.0181 80.2264 13.7431 80.2445 15.175V18.8542H78.8V15.2292C78.8 14.8847 78.7306 14.6486 78.6125 14.5042C78.4764 14.3236 78.2556 14.25 77.932 14.25C77.7473 14.2422 77.5642 14.2877 77.4047 14.381C77.2451 14.4743 77.1157 14.6116 77.032 14.7764V18.8542H75.5875V10.6972H77.032V13.7431H77.0153V13.7431ZM82.8612 18.8542H81.4167V10.6972H82.8612V18.8542V18.8542ZM86.5306 18.9625C85.75 18.9625 85.1042 18.7083 84.5945 18.1833C84.1014 17.675 83.8625 16.9875 83.8625 16.1167V15.9722C83.8625 15.3917 83.9653 14.8847 84.1681 14.4306C84.3903 13.9597 84.6792 13.6153 85.0528 13.3806C85.4431 13.1264 85.8862 13.0181 86.3778 13.0181C87.1084 13.0181 87.6862 13.2542 88.1112 13.7431C88.5362 14.25 88.757 14.9389 88.757 15.8444V16.4792H85.325C85.3584 16.8417 85.4945 17.15 85.732 17.3861C85.9774 17.6118 86.3 17.7351 86.6334 17.7306C87.1764 17.7306 87.6195 17.5125 87.925 17.0778L88.6375 17.9292C88.4169 18.2577 88.1117 18.5206 87.7542 18.6903C87.3973 18.8708 86.9903 18.9625 86.532 18.9625H86.5306ZM86.3612 14.25C86.2314 14.2437 86.102 14.2683 85.9836 14.3219C85.8653 14.3755 85.7614 14.4566 85.6806 14.5583C85.4865 14.8096 85.3688 15.1114 85.3417 15.4278H87.3292V15.3194C87.3454 15.0315 87.255 14.7476 87.075 14.5222C86.9042 14.3417 86.6667 14.25 86.3612 14.25V14.25ZM90.8987 13.1083L90.932 13.7792C91.3223 13.2528 91.832 13 92.4959 13C93.0556 13 93.482 13.1806 93.7695 13.5431C94.0417 13.9056 94.1778 14.4319 94.1945 15.1389V18.8542H92.75V15.1736C92.75 14.8486 92.682 14.6319 92.5459 14.4681C92.4278 14.3222 92.207 14.25 91.8834 14.25C91.4931 14.25 91.1875 14.4306 90.9834 14.7944V18.8542H89.5223V13.1083H90.8987ZM99.7334 17.5125L101.094 13.1083H102.028L100.056 18.8542H99.3612L97.4056 13.1083H98.3403L99.7 17.5125H99.7334V17.5125ZM102.589 15.9361C102.579 15.4125 102.683 14.8931 102.894 14.4139C103.099 13.9597 103.404 13.6153 103.744 13.3625C104.135 13.1264 104.56 13 105.036 13C105.767 13 106.361 13.2708 106.803 13.8153C107.261 14.3583 107.483 15.0833 107.483 15.9903V16.0444C107.483 16.5875 107.381 17.1139 107.176 17.5486C106.797 18.4403 105.951 18.9986 105.036 18.9625C104.304 18.9625 103.71 18.6903 103.268 18.1472C102.81 17.6028 102.588 16.8778 102.588 15.9903V15.9361H102.589ZM103.506 16.0444C103.506 16.6792 103.642 17.1861 103.914 17.5861C104.203 17.9653 104.576 18.1653 105.036 18.1653C105.259 18.1712 105.479 18.1193 105.675 18.0147C105.872 17.91 106.038 17.7561 106.157 17.5681C106.429 17.1861 106.565 16.6236 106.565 15.9361C106.565 15.3014 106.429 14.7944 106.14 14.3944C106.02 14.213 105.855 14.0649 105.662 13.9637C105.469 13.8625 105.254 13.8114 105.036 13.8153C104.578 13.8153 104.203 13.9958 103.931 14.3958C103.642 14.7569 103.506 15.3194 103.506 16.0444V16.0444ZM109.506 13.1083L109.539 13.8333C109.946 13.2903 110.49 13 111.153 13C112.292 13 112.869 13.6889 112.886 15.0653V18.8542H111.951V15.0486C111.951 14.6319 111.867 14.3222 111.696 14.1417C111.526 13.9417 111.238 13.8333 110.881 13.8333C110.593 13.825 110.312 13.9146 110.082 14.0875C109.859 14.265 109.683 14.4956 109.572 14.7583V18.8542H108.638V13.1083H109.504H109.506Z" fill="#303232"/>
<path d="M33.4861 15.9625C31.2253 14.1359 28.3972 13.157 25.4909 13.1952C22.5847 13.2334 19.7833 14.2863 17.5713 16.1717C15.3594 18.0571 13.876 20.6564 13.378 23.5198C12.8799 26.3833 13.3984 29.3308 14.8438 31.8524C16.2893 34.3739 18.5707 36.3109 21.2933 37.3282C24.0159 38.3455 27.0085 38.379 29.7532 37.4231C32.498 36.4672 34.8222 34.5819 36.3239 32.0934C37.8255 29.6049 38.41 26.6698 37.9763 23.7958" stroke="#303232" stroke-width="1.5" stroke-linecap="round" stroke-linejoin="round"/>
<path d="M19.7527 24.7569L25.1763 30.2472L39.4291 15.8167" stroke="#303232" stroke-width="1.5" stroke-linecap="round"/>
</g>
<defs>
<clipPath id="clip0_126_2">
<rect width="161" height="50" fill="white"/>
</clipPath>
</defs>
</svg>
