<?xml version="1.0" encoding="UTF-8"?>
<svg width="116px" height="36px" viewBox="0 0 116 36" version="1.1" xmlns="http://www.w3.org/2000/svg" xmlns:xlink="http://www.w3.org/1999/xlink">
    <title>robin</title>
    <g id="Initial-Flow" stroke="none" stroke-width="1" fill="none" fill-rule="evenodd">
        <g id="energy-3-no-copy" transform="translate(-24.000000, -700.000000)">
            <g id="Group-2" transform="translate(25.000000, 158.000000)">
                <g id="robin" transform="translate(0.000000, 543.000000)">
                    <rect id="Rectangle" stroke="#DEDEDE" fill="#FFFFFF" fill-rule="nonzero" x="0" y="0" width="114.277778" height="34" rx="3.58"></rect>
                    <path d="M102.565433,19.6437425 C101.701542,17.7582677 99.5478979,16.8966932 96.7858802,16.6719346 L95.5326299,16.6719346 C94.315882,16.8217736 93.6223357,17.3711835 93.6101682,18.8570874 C95.3136153,19.7061754 95.2527779,21.354405 94.6079015,23.5020981 C94.4862267,24.0515079 94.4010543,24.5884312 94.315882,25.1253545 L93.5371633,25.8495766 C93.1356365,27.0857488 94.7904137,27.3854269 96.0558315,27.2730476 C96.7116431,27.1781197 97.3299306,26.9018736 97.8444509,26.473906 C98.0026281,26.3115803 97.9661256,25.8495766 98.0391305,25.6373046 C98.4406573,25.3251399 99.3167158,25.3875728 99.7912475,25.200274 C100.863651,24.8218905 101.797683,24.1160649 102.468093,23.1774468 C103.161639,22.1036003 103.015629,20.6426695 102.553265,19.6437425 L102.565433,19.6437425 Z M100.071099,22.2159795 C99.3077024,23.1729869 98.30126,23.8946769 97.163072,24.3012397 L97.0413973,24.2887531 C96.9927273,22.5156576 98.5014947,18.9195204 97.0413973,18.3451373 C96.9197225,17.8207007 97.9539582,18.0329726 98.4163224,17.9205934 C98.9760264,18.0704324 99.5113955,18.1828117 99.8764198,18.5199496 C100.703808,19.2816314 100.849818,21.0921866 100.071099,22.2159795 L100.071099,22.2159795 Z M75.1399353,15.1111111 C75.5049597,15.1485709 75.8334816,15.173544 75.9551564,15.4107892 C76.2715108,16.0600918 76.0768312,17.0590188 76.1620035,17.870647 L76.3445157,20.1681791 L76.6000328,21.1671062 C76.9893921,20.9173744 77.1475693,20.3180182 77.3787514,19.8185547 C78.0114603,18.4075703 78.5468294,16.7593407 79.6784049,15.9477125 C80.0434293,15.6730076 81.2358422,15.3358697 81.7103739,15.9102527 C81.5643641,16.659448 81.1019999,17.4710762 80.773478,18.0579458 L78.5954993,23.139987 L77.9141205,25.3875728 C77.7437758,25.9244961 77.7924457,26.5488255 77.5004262,26.9359097 C76.8920523,27.048289 76.149836,27.0607756 75.6753044,27.3604537 C74.9939255,26.2491474 74.9939255,24.7382703 74.5437288,23.3897188 L73.9231874,21.8538685 C73.5703305,21.991221 73.4729907,22.777876 73.3148135,23.1524736 C73.0349614,23.7393432 72.0980656,26.4614194 71.7695436,26.7111511 C71.4653567,26.9109365 71.1124998,26.836017 70.686638,26.9109365 C70.2972787,26.9608829 69.9200869,26.8984499 69.6767373,26.686178 C69.5307275,25.6872509 69.5550625,24.6508642 69.3847178,23.7143701 C68.9466886,21.4043513 68.0462951,18.232758 68.983191,15.3983026 C69.3725503,15.3233831 70.2486088,15.0486782 70.7718104,15.3358697 C71.6843713,16.0101454 71.1976721,19.5438498 71.7938786,20.7051024 C71.8182136,20.7051024 71.8425485,20.7051024 71.8668835,20.6801292 C72.3414152,18.6073557 73.5338281,15.7853868 75.1399353,15.1111111 L75.1399353,15.1111111 Z M91.4565245,17.6958348 L90.5682985,17.7832409 C89.1085779,18.2824875 87.9923545,19.5031 87.5994337,21.0297537 L87.5507637,21.0547269 C87.5434568,19.8508242 86.9555509,18.7287995 85.9809262,18.0586751 C85.0063014,17.3885508 83.7715136,17.2573429 82.6837722,17.7083214 C80.8464829,18.3451373 80.3476162,20.3804511 79.629735,22.4657113 C79.3863854,23.2149066 79.0213611,24.5010251 79.2890456,25.3750862 C80.2624439,28.6715454 84.6184013,26.7361243 85.9081541,25.1877874 C86.3705183,24.6383776 86.6138679,23.8267494 87.100567,23.2898261 L87.1370695,23.2273931 C87.1370695,24.201347 87.0883995,25.5748716 87.660271,26.049362 C87.988793,26.3115803 88.6215019,26.4489328 89.1690384,26.4239596 C91.115835,26.2741206 91.9188887,26.0618486 92.9652918,24.8131898 C94.6809064,22.7529028 94.8025811,17.9580531 91.4565245,17.6958348 L91.4565245,17.6958348 Z M84.8495834,21.8788417 C84.5697314,23.0650675 83.5719981,26.1867144 82.1727381,25.5873582 C81.5035267,25.3126533 81.7103739,24.0764811 81.9050535,23.2898261 C82.4890925,21.0172671 82.8784519,20.1681791 84.3385493,19.0318997 C84.8252485,19.2316851 85.068598,20.9548342 84.8495834,21.8788417 Z M90.2641115,24.838163 L89.8139148,24.8007032 C89.4853929,24.5884312 89.2542108,23.8642091 89.4732254,23.2898261 C89.9266871,21.9937051 90.4632284,20.7297986 91.0793326,19.50639 C91.3956871,19.6437425 91.3956871,20.0058535 91.5173618,20.3429914 C92.0527309,21.8288953 91.1280025,24.2138336 90.2641115,24.838163 L90.2641115,24.838163 Z M65.5519619,17.4585896 C66.0629961,17.4960494 66.5618627,17.6084287 66.7565424,17.9330799 C67.2432415,18.7946545 66.3428481,22.8902553 66.0994985,24.0515079 C65.9048188,24.9005959 66.2455082,25.6373046 66.2211733,26.3615267 C65.831814,26.5737987 64.1161994,26.9858561 63.7876775,26.623745 C63.4591556,26.2866071 63.5564954,25.624818 63.3739832,25.1628142 C63.0332938,24.3137263 62.5222597,23.1025273 61.792211,22.6155503 L61.488024,23.989075 C61.3298468,25.6997375 61.7313736,26.5488255 59.9914241,26.5613121 C59.6263997,26.5613121 59.2735429,26.5987718 59.0423608,26.411473 C58.920686,24.0015616 59.0423608,20.7550488 59.9792566,18.8820606 C60.2712761,18.2702178 60.4172859,17.508536 61.1351671,17.4336164 C62.32758,17.3087506 62.911619,18.1078922 63.1428011,18.9070338 C63.3253133,19.5313632 63.1428011,20.4678573 63.9093523,20.5927231 L64.0066921,20.56775 C64.5785636,20.1556926 64.1648694,18.8820606 64.4933913,18.1703251 C64.7245734,17.6708616 65.0652628,17.6708616 65.5519619,17.4585896 L65.5519619,17.4585896 Z M58.9085185,18.295191 C58.3731494,18.1203788 57.5700958,18.0454592 57.0955641,17.870647 C56.5236926,18.9944399 56.2438406,20.8424549 56.0856634,22.4906845 C55.6354667,22.3907918 55.2826098,22.0786271 54.9175854,21.8913283 L53.7616749,21.4542977 L53.6886701,21.4542977 C53.8225123,20.6801292 55.5381268,19.718662 55.0879301,19.0069265 C54.1145318,17.446103 50.1722687,17.0715054 48.5661614,17.9705397 C48.225472,18.1578385 47.690103,18.232758 47.5440932,18.6697886 C47.4224184,19.0443863 47.8361127,19.4814168 47.8847826,19.8435279 C47.9334525,20.2056389 47.8239452,20.5927231 47.7631078,20.9173744 L47.7387729,20.9173744 C47.1303989,20.293045 47.2885762,19.1567655 46.4368526,18.7322216 C42.3242448,16.6095016 40.3287783,20.355478 40.0367588,24.5010251 C39.6717344,24.2512933 39.4892222,23.7643164 39.2215377,23.4396651 C37.2139037,21.0672135 38.747006,20.6176963 40.3287783,19.2191985 C40.7424725,18.8446008 41.8375456,17.9081068 41.2656741,16.9216663 C40.778975,16.085065 39.331045,16.3847431 38.1994695,16.085065 C35.6808013,15.3983026 32.2252373,16.2473906 31.2031691,17.7457811 L31.1666667,18.1328653 C31.3978488,18.657302 33.0282909,18.3825971 33.587995,18.3825971 L33.6123299,18.4200569 C32.6389316,20.4678573 32.5780942,23.9141555 32.8336113,26.2866071 C33.4419852,26.5363389 34.2937087,26.8734768 34.8290778,26.2990937 C35.0724274,25.412546 35.0724274,24.1763738 35.1089298,23.2273931 L35.2792745,20.4428841 L35.5104566,17.9830263 C35.4617867,17.7707543 35.3036095,17.6084287 35.2792745,17.3462103 C35.8146436,16.5720419 38.0899621,16.5970151 38.9538531,17.2588042 C38.9660206,18.8820606 37.2139037,19.4814168 36.2405054,20.0433133 L35.3036095,20.6426695 C35.3036095,21.1920793 35.6686338,21.7290026 35.8633135,22.14106 C36.4960224,23.4771249 37.7614402,25.9994156 39.0755279,26.5862853 C39.6960694,26.8859634 40.194936,26.2366608 40.778975,26.3864998 C42.0322253,26.7111511 42.9691212,27.2355878 44.2710414,26.686178 C45.09843,26.3240669 45.8528137,25.7621705 46.4368526,25.0254618 C46.7653746,24.6134044 46.9113843,23.7518298 47.3250786,23.4271786 C47.7144379,24.3386995 47.1182315,26.2741206 47.4467534,27.3354805 C47.8117778,27.5102927 49.3327126,27.2106146 49.9045841,27.0857488 C51.264607,26.7971318 52.5708705,26.2870589 53.7738424,25.5748716 L55.7814764,24.4011324 L55.8666488,24.4385922 C55.7936439,25.3001667 55.6841366,26.3490401 56.2195057,26.7111511 C56.6818699,27.0358024 57.728273,26.9983426 57.9837901,26.5987718 C58.2514746,26.1867144 58.1906372,25.5998448 58.3731494,25.050435 C58.7746762,23.8392359 59.2735429,19.3315778 58.9085185,18.3076776 L58.9085185,18.295191 Z M44.3075438,24.5010251 C44.0641943,24.8131898 43.5774951,25.4500058 43.0299586,25.2502204 C42.1417326,24.8131898 42.762274,21.1546196 43.2489732,20.4179109 C43.4193179,20.1556926 43.6505,20.0183401 43.9181845,19.8435279 C46.2665079,20.0433133 45.1714348,23.4396651 44.3075438,24.5010251 Z M50.3061109,21.0547269 C50.4277857,19.8060681 50.7076377,19.6812022 50.0749288,18.869574 C50.537293,18.2452446 52.0217254,18.5449227 52.4840896,19.0194131 C52.6666018,20.2680719 51.3160117,21.1171598 50.3061109,21.0547269 Z M53.1046311,23.9266421 C52.1940018,24.7510546 51.1055453,25.3416538 49.9289191,25.6497912 C49.7464069,25.4250326 49.7707419,25.1877874 49.7099045,24.838163 C49.515374,23.865874 50.1253526,22.9157317 51.0726621,22.7154431 L52.009558,22.777876 L52.8369465,22.4532247 L53.2506408,22.5281442 C53.7860099,22.8777687 53.3966506,23.6144774 53.1046311,23.9391287 L53.1046311,23.9266421 Z" id="Shape" fill="#A8CA24" fill-rule="nonzero"></path>
                    <path d="M35.2553411,10.1605258 L33.1877346,10.1605258 L33.1877346,11.6481481 L35.6101374,11.6481481 L35.6101374,12.5746498 L32.1111111,12.5746498 L32.1111111,7.00259067 L35.5979031,7.00259067 L35.5979031,7.94214162 L33.1877346,7.94214162 L33.1877346,9.26012282 L35.2553411,9.26012282 L35.2553411,10.1735751 L35.2553411,10.1605258 Z M37.1394322,8.43801574 L37.1761352,8.89474189 C37.4575255,8.54241029 37.8245562,8.37276914 38.2894618,8.37276914 C38.7910705,8.37276914 39.1336325,8.56850892 39.3171479,8.98608712 C39.5985381,8.56850892 39.9778032,8.35971982 40.4794118,8.35971982 C40.9076144,8.35971982 41.2134733,8.49021301 41.4214574,8.75119939 C41.6294415,9.01218576 41.7273163,9.40366532 41.7273163,9.92563807 L41.7273163,12.5746498 L40.6873959,12.5746498 L40.6873959,9.93868739 C40.6873959,9.70379965 40.6506929,9.53415851 40.5650524,9.41671464 C40.4794118,9.31232009 40.3203652,9.26012282 40.1123811,9.26012282 C39.7942878,9.26012282 39.5863037,9.41671464 39.4639602,9.72989829 L39.4639602,12.5746498 L38.4362741,12.5746498 L38.4362741,9.93868739 C38.4362741,9.70379965 38.3873367,9.53415851 38.3016962,9.41671464 C38.2160557,9.31232009 38.057009,9.26012282 37.8490249,9.26012282 C37.5554003,9.26012282 37.3351819,9.390616 37.2128383,9.65160238 L37.2128383,12.5746498 L36.1729179,12.5746498 L36.1729179,8.43801574 L37.1516665,8.43801574 L37.1394322,8.43801574 Z M46.0215759,10.5389561 C46.0215759,11.191422 45.886998,11.6872961 45.6178421,12.0787757 C45.3486863,12.4702552 44.9816555,12.6529457 44.5167499,12.6529457 C44.1522541,12.6658338 43.8017167,12.5028572 43.56247,12.2092689 L43.56247,14.1666667 L42.534784,14.1666667 L42.534784,8.43801574 L43.4890639,8.43801574 L43.5257669,8.84254462 C43.7643346,8.52865304 44.1257769,8.35035058 44.5045156,8.35971982 C44.9938899,8.35971982 45.3609206,8.5554596 45.6300765,8.93388985 C45.886998,9.29927077 46.0215759,9.82124352 46.0215759,10.4867588 L46.0215759,10.5389561 L46.0215759,10.5389561 Z M44.9816555,10.4606601 C44.9816555,10.0691806 44.9204837,9.78209557 44.7981402,9.57330647 C44.6799799,9.36514179 44.4630304,9.24441083 44.2353597,9.26012282 C43.9172664,9.26012282 43.6848136,9.390616 43.56247,9.65160238 L43.56247,11.3480138 C43.6848136,11.6220495 43.9295007,11.765592 44.2475941,11.765592 C44.7369684,11.765592 44.9816555,11.3219152 44.9816555,10.4606601 L44.9816555,10.4606601 Z M46.9513871,12.5746498 L46.9513871,9.2470735 L46.3763723,9.2470735 L46.3763723,8.43801574 L46.9513871,8.43801574 L46.9513871,8.08568413 C46.9513871,7.62895797 47.0737307,7.26357705 47.3184179,7.00259067 C47.563105,6.7416043 47.9301357,6.61111111 48.3705726,6.61111111 C48.5173849,6.61111111 48.6886659,6.65025907 48.89665,6.70245634 L48.89665,7.55066206 C48.7919964,7.52829094 48.6851869,7.51952753 48.5785567,7.52456342 C48.1870573,7.52456342 47.9913075,7.7203032 47.9913075,8.11178277 L47.9913075,8.43801574 L48.7620721,8.43801574 L48.7620721,9.2470735 L47.9913075,9.2470735 L47.9913075,12.5746498 L46.9513871,12.5746498 Z M49.1413372,10.4737095 C49.1413372,10.0561313 49.2147433,9.69075034 49.3615556,9.36451737 C49.5083679,9.05133372 49.7285863,8.80339666 49.9977422,8.6207062 C50.2791324,8.45106505 50.6094601,8.35971982 50.9764908,8.35971982 C51.4903339,8.35971982 51.9185364,8.52936097 52.2488641,8.88169257 C52.5791917,9.22097486 52.7627071,9.67770102 52.7994102,10.2649204 L52.8116445,10.5520054 C52.8116445,11.1783727 52.6403635,11.6872961 52.3222702,12.0787757 C51.9797082,12.4702552 51.5392713,12.6529457 50.9764908,12.6529457 C50.4137104,12.6529457 49.9732735,12.4572059 49.6307115,12.0787757 C49.3003838,11.6872961 49.1413372,11.1653234 49.1413372,10.5128574 L49.1413372,10.4867588 L49.1413372,10.4737095 Z M50.1690232,10.5520054 C50.1690232,10.9434849 50.2424294,11.2436193 50.3770073,11.4524084 C50.5238196,11.6611975 50.7195693,11.765592 50.9764908,11.765592 C51.221178,11.765592 51.4291621,11.6611975 51.56374,11.4524084 C51.7105523,11.2436193 51.7717241,10.9304356 51.7717241,10.4737095 C51.7717241,10.0822299 51.7105523,9.78209557 51.56374,9.57330647 C51.4283312,9.36511724 51.2014757,9.24660284 50.9642565,9.26012282 C50.7195693,9.26012282 50.5238196,9.36451737 50.3770073,9.57330647 C50.2424294,9.78209557 50.1690232,10.0952792 50.1690232,10.5520054 L50.1690232,10.5520054 Z M54.4510485,8.89474189 C54.7324387,8.54241029 55.0750007,8.37276914 55.4909689,8.37276914 C56.3473739,8.37276914 56.7633421,8.89474189 56.7755764,9.92563807 L56.7755764,12.5746498 L55.735656,12.5746498 L55.735656,9.96478603 C55.735656,9.71684897 55.6867186,9.54720783 55.6010781,9.44281328 C55.5032032,9.31232009 55.3441566,9.26012282 55.1117038,9.26012282 C54.8180792,9.26012282 54.5978608,9.390616 54.4632828,9.63855306 L54.4632828,12.5746498 L53.4233624,12.5746498 L53.4233624,6.70245634 L54.4632828,6.70245634 L54.4632828,8.89474189 L54.4510485,8.89474189 Z M58.6596675,12.5746498 L57.6197471,12.5746498 L57.6197471,6.70245634 L58.6596675,6.70245634 L58.6596675,12.5746498 Z M61.3022888,12.6529457 C60.7395084,12.6529457 60.2746028,12.4702552 59.907572,12.091825 C59.5527757,11.7264441 59.3814947,11.2305699 59.3814947,10.6042026 L59.3814947,10.4998081 C59.3814947,10.0822299 59.4549008,9.71684897 59.6017131,9.390616 C59.7607597,9.05133372 59.9687438,8.80339666 60.2378997,8.63375552 C60.5192899,8.45106505 60.8373832,8.37276914 61.1921796,8.37276914 C61.718257,8.37276914 62.1342252,8.54241029 62.4400841,8.89474189 C62.745943,9.26012282 62.9049897,9.75599693 62.9049897,10.4084629 L62.9049897,10.865189 L60.4336494,10.865189 C60.4581181,11.1261754 60.555993,11.3480138 60.727274,11.517655 C60.898555,11.6742468 61.1187735,11.765592 61.375695,11.765592 C61.7671944,11.765592 62.0852877,11.6090002 62.3055062,11.2958165 L62.8193492,11.9091345 C62.6603025,12.1440223 62.4523185,12.3267127 62.1831626,12.4572059 C61.9262411,12.5876991 61.6326165,12.6529457 61.3022888,12.6529457 L61.3022888,12.6529457 Z M61.1799452,9.26012282 C60.9841955,9.26012282 60.8129145,9.32536941 60.6905709,9.48196124 C60.5517151,9.65969338 60.4664284,9.87801631 60.4458838,10.1083285 L61.8773036,10.1083285 L61.8773036,10.0300326 C61.8882623,9.82049979 61.8224604,9.61462319 61.6937883,9.4558626 C61.5714447,9.32536941 61.4001637,9.26012282 61.1799452,9.26012282 L61.1799452,9.26012282 Z M64.4465188,8.43801574 L64.4709875,8.92084053 C64.7523777,8.54241029 65.1194085,8.35971982 65.5965484,8.35971982 C66.0002822,8.35971982 66.3061412,8.49021301 66.5141253,8.75119939 C66.709875,9.01218576 66.8077498,9.390616 66.8199842,9.89953944 L66.8199842,12.5746498 L65.7800638,12.5746498 L65.7800638,9.92563807 C65.7800638,9.69075034 65.7311264,9.53415851 65.6332515,9.41671464 C65.547611,9.31232009 65.3885643,9.26012282 65.1561115,9.26012282 C64.8747213,9.26012282 64.6545029,9.390616 64.5076906,9.65160238 L64.5076906,12.5746498 L63.4555358,12.5746498 L63.4555358,8.43801574 L64.4342844,8.43801574 L64.4465188,8.43801574 Z M70.8083848,11.6090002 L71.7871335,8.43801574 L72.4600231,8.43801574 L71.0408376,12.5746498 L70.539229,12.5746498 L69.1322778,8.43801574 L69.8051675,8.43801574 L70.7839161,11.6090002 L70.8083848,11.6090002 Z M72.8637569,10.4737095 C72.8637569,10.0691806 72.9371631,9.69075034 73.0839754,9.37756669 C73.2307877,9.05133372 73.4510061,8.80339666 73.6956933,8.6207062 C73.9770835,8.45106505 74.2829425,8.35971982 74.6255045,8.35971982 C75.1515819,8.35971982 75.5797844,8.5554596 75.8978777,8.94693917 C76.2282053,9.33841873 76.387252,9.86039148 76.387252,10.5128574 L76.387252,10.5520054 C76.387252,10.9434849 76.3138458,11.3219152 76.1670336,11.6350988 C75.8944138,12.2765678 75.2853752,12.6787061 74.6255045,12.6529457 C74.0994271,12.6529457 73.6712246,12.4572059 73.3531313,12.0657263 C73.0228036,11.6742468 72.8637569,11.152274 72.8637569,10.5128574 L72.8637569,10.4867588 L72.8637569,10.4737095 Z M73.5244123,10.5520054 C73.5244123,11.0087315 73.6222871,11.3741125 73.8180369,11.6611975 C74.0260209,11.9352332 74.2951768,12.0787757 74.6255045,12.0787757 C74.9680665,12.0787757 75.2372224,11.9352332 75.4329721,11.6481481 C75.6287218,11.3741125 75.7265967,10.9695836 75.7265967,10.4737095 C75.7265967,10.0169833 75.6287218,9.65160238 75.4207377,9.36451737 C75.236024,9.09449416 74.9387856,8.9384138 74.6255045,8.94693917 C74.2951768,8.94693917 74.0260209,9.07743235 73.8302712,9.36451737 C73.6222871,9.62550374 73.5244123,10.0300326 73.5244123,10.5520054 Z M77.8431406,8.43801574 L77.8676093,8.95998849 C78.1612339,8.56850892 78.5527333,8.35971982 79.0298733,8.35971982 C79.8495753,8.35971982 80.2655434,8.85559394 80.2777778,9.84734216 L80.2777778,12.5746498 L79.6048881,12.5746498 L79.6048881,9.83429284 C79.6048881,9.53415851 79.5437163,9.31232009 79.4213727,9.1818269 C79.2990292,9.0382844 79.0910451,8.95998849 78.8341236,8.95998849 C78.629022,8.95336162 78.4273803,9.01742606 78.2591087,9.14267895 C78.1003076,9.26776265 77.9739934,9.43392758 77.892078,9.62550374 L77.892078,12.5746498 L77.2191883,12.5746498 L77.2191883,8.43801574 L77.8431406,8.43801574 L77.8431406,8.43801574 Z" id="Shape" fill="#303232" fill-rule="nonzero"></path>
                    <path d="M23.1096722,10.4925205 C19.7513337,7.77973959 14.9371291,7.84346271 11.6517699,10.6441828 C8.36641068,13.4449029 7.54160448,18.1883531 9.68871477,21.9336882 C11.8358251,25.6790233 16.3459446,27.3640894 20.4228887,25.9441789 C24.4998328,24.5242685 26.9874052,20.4020592 26.3433603,16.1332393" id="Path" stroke="#303232" stroke-width="1.5" stroke-linecap="round" stroke-linejoin="round"></path>
                    <polyline id="Path" stroke="#303232" stroke-width="1.5" stroke-linecap="round" points="13.2222222 16.8246971 17.1269841 20.7777778 27.3888889 10.3888889"></polyline>
                </g>
            </g>
        </g>
    </g>
</svg>