<?xml version="1.0" encoding="UTF-8"?>
<svg width="16px" height="16px" viewBox="0 0 16 16" version="1.1" xmlns="http://www.w3.org/2000/svg" xmlns:xlink="http://www.w3.org/1999/xlink">
    <title>round-euro</title>
    <g id="Initial-Flow" stroke="none" stroke-width="1" fill="none" fill-rule="evenodd">
        <g id="energy-1-no-copy" transform="translate(-26.000000, -622.000000)" fill="#DBF1FF" fill-rule="nonzero">
            <g id="Group-2" transform="translate(25.000000, 158.000000)">
                <g id="round-euro" transform="translate(1.000000, 464.000000)">
                    <path d="M8,0 C3.58864516,0 0,3.58890323 0,8 C0,12.4110968 3.58864516,16 8,16 C12.4113548,16 16,12.4110968 16,8 C16,3.58890323 12.4113548,0 8,0 Z M9.44877419,6.71896774 L9.44877419,7.57290323 L6.40387097,7.57290323 C6.38658065,8.1003871 6.38916129,8.23716129 6.39767742,8.42683871 L9.44877419,8.42683871 L9.44877419,9.28077419 L6.49729032,9.28077419 C6.64103226,9.98141935 6.91070968,10.5587097 7.30580645,10.9419355 C7.70064516,11.3254194 8.22890323,11.5169032 8.89083871,11.5169032 C9.49806452,11.5169032 10.0993548,11.3883871 10.6947097,11.1316129 L10.6947097,12.0072258 C10.1261935,12.2606452 9.50941935,12.3870968 8.84412903,12.3870968 C7.92180645,12.3870968 7.17935484,12.1254194 6.61703226,11.6018065 C6.05445161,11.0784516 5.68387097,10.2810323 5.50503226,9.28077419 L4.53858065,9.28077419 L4.53858065,8.42683871 L5.41548387,8.42683871 C5.41032258,8.28593548 5.4116129,8.30296774 5.4116129,8.06116129 L5.42322581,7.57290323 L4.53832258,7.57290323 L4.53832258,6.9323871 L4.53832258,6.71896774 L5.51509677,6.71896774 C5.67716129,5.76283871 6.02812903,5.01006452 6.57316129,4.46529032 C7.14116129,3.89703226 7.88670968,3.61290323 8.80903226,3.61290323 C9.59122581,3.61290323 10.3034839,3.80180645 10.9455484,4.17909677 L10.5310968,4.99045161 C9.88490323,4.65574194 9.31096774,4.48851613 8.80903226,4.48851613 C7.60077419,4.48851613 6.83612903,5.23354839 6.51277419,6.71896774 L9.44877419,6.71896774 Z" id="Shape"></path>
                </g>
            </g>
        </g>
    </g>
</svg>