<svg xmlns="http://www.w3.org/2000/svg" height="20" width="20" viewBox="0 0 32 32"><title>telegram</title><g fill="#ffffff" class="nc-icon-wrapper"><path d="M31.935,3.369a.683.683,0,0,0-.465-.507,2.4,2.4,0,0,0-1.259.09S2.174,13.029.573,14.145c-.346.24-.461.379-.518.544-.277.794.585,1.144.585,1.144l7.226,2.355a.8.8,0,0,0,.366-.022c1.644-1.038,16.539-10.444,17.4-10.76.135-.041.235,0,.213.1-.352,1.206-13.215,12.637-13.286,12.707a.276.276,0,0,0-.1.236L11.787,27.5s-.282,2.2,1.914,0c1.557-1.559,3.051-2.849,3.8-3.476,2.485,1.715,5.159,3.612,6.312,4.6a2.006,2.006,0,0,0,1.464.566c1.1-.042,1.4-1.245,1.4-1.245S31.785,7.39,31.957,4.635c.016-.27.039-.443.041-.628A2.283,2.283,0,0,0,31.935,3.369Z" fill="#ffffff"></path></g></svg>