<?xml version="1.0" encoding="UTF-8"?>
<svg width="13px" height="14px" viewBox="0 0 13 14" version="1.1" xmlns="http://www.w3.org/2000/svg" xmlns:xlink="http://www.w3.org/1999/xlink">
    <title>Group 12</title>
    <g id="Colors" stroke="none" stroke-width="1" fill="none" fill-rule="evenodd">
        <g id="blue-copy-2" transform="translate(-725.000000, -696.000000)" fill="#FDFAF5" fill-rule="nonzero">
            <g id="Group-12" transform="translate(725.000000, 696.784581)">
                <path d="M8.2875,9.29041894 L6.09375,7.66541894 C6.825,7.09666894 7.3125,6.28416894 7.3125,5.30916894 L7.3125,4.65916894 C7.3125,3.11541894 6.175,1.73416894 4.63125,1.65291894 C3.00625,1.57166894 1.625,2.87166894 1.625,4.49666894 L1.625,5.30916894 C1.625,6.28416894 2.1125,7.09666894 2.84375,7.66541894 L0.65,9.37166894 C0.24375,9.69666894 0,10.1841689 0,10.6716689 L0,12.2154189 C0,12.7029189 0.325,13.0279189 0.8125,13.0279189 L8.125,13.0279189 C8.6125,13.0279189 8.9375,12.7029189 8.9375,12.2154189 L8.9375,10.5904189 C8.9375,10.1029189 8.69375,9.61541894 8.2875,9.29041894 Z" id="Path"></path>
                <path d="M12.26875,5.22791894 L10.80625,4.25291894 C11.13125,3.92791894 11.375,3.44041894 11.375,2.87166894 L11.375,2.14041894 C11.375,1.16541894 10.64375,0.190418945 9.66875,0.027918945 C8.69375,-0.134581055 7.88125,0.434168945 7.475,1.16541894 C8.36875,1.97791894 8.9375,3.11541894 8.9375,4.41541894 L8.9375,5.22791894 C8.9375,5.95916894 8.775,6.69041894 8.45,7.25916894 C8.45,7.25916894 9.425,7.99041894 9.425,8.07166894 L12.1875,8.07166894 C12.675,8.07166894 13,7.74666894 13,7.25916894 L13,6.60916894 C13,6.04041894 12.75625,5.55291894 12.26875,5.22791894 Z" id="Path"></path>
            </g>
        </g>
    </g>
</svg>