<?xml version="1.0" encoding="UTF-8"?>
<svg width="13px" height="16px" viewBox="0 0 13 16" version="1.1" xmlns="http://www.w3.org/2000/svg" xmlns:xlink="http://www.w3.org/1999/xlink">
    <title>verified</title>
    <g id="Initial-Flow" stroke="none" stroke-width="1" fill="none" fill-rule="evenodd">
        <g id="energy-1-no-copy" transform="translate(-26.000000, -501.000000)" fill="#DBF1FF" fill-rule="nonzero">
            <g id="Group-2" transform="translate(25.000000, 158.000000)">
                <g id="verified" transform="translate(1.000000, 343.000000)">
                    <path d="M12.714,1.02199305 L6.55610526,0.00459175629 C6.5189567,-0.00153058543 6.4810433,-0.00153058543 6.44389474,0.00459175629 L0.286,1.02199305 C0.121036965,1.04918009 0,1.19060425 0,1.35637895 L0,8.47818802 C0,10.5329995 1.11389474,12.4162093 3.22057895,13.9250154 C4.19571261,14.6195001 5.26289121,15.1772133 6.39189474,15.5823621 C6.46201268,15.6058793 6.53798732,15.6058793 6.60810526,15.5823621 C7.73710879,15.1772133 8.80428739,14.6195001 9.77942105,13.9250154 C11.8861053,12.4162093 13,10.5329995 13,8.47818802 L13,1.35637895 C13,1.19060425 12.878963,1.04918009 12.714,1.02199305 Z M5.85444737,10.8321155 L2.79568421,7.79992049 L3.76315789,6.8408502 L5.77713158,8.83733068 L9.84818421,4.13049315 L10.8871579,5.01224094 L5.85444737,10.8321155 Z" id="Shape"></path>
                </g>
            </g>
        </g>
    </g>
</svg>