<?xml version="1.0" encoding="UTF-8"?>
<svg width="16px" height="16px" viewBox="0 0 16 16" version="1.1" xmlns="http://www.w3.org/2000/svg" xmlns:xlink="http://www.w3.org/1999/xlink">
    <title>Shape</title>
    <g id="Initial-Flow" stroke="none" stroke-width="1" fill="none" fill-rule="evenodd">
        <g id="energy-1-no-copy" transform="translate(-25.000000, -382.000000)" fill="#DBF1FF" fill-rule="nonzero">
            <g id="Group-2" transform="translate(25.000000, 158.000000)">
                <g id="world" transform="translate(0.000000, 224.000000)">
                    <path d="M8,0 C3.6,0 0,3.6 0,8 C0,12.4 3.6,16 8,16 C12.4,16 16,12.4 16,8 C16,3.6 12.4,0 8,0 Z M8,14 C6.5,14 5.2,13.5 4.1,12.6 C4.7,11.8 4.8,10.8 4.2,10 C3.7,9.3 2.9,8.6 2.9,8 C2.9,7.2 4.8,6.9 5.4,6.1 C6.1,5.3 5.4,3.8 4.7,3 C5.5,2.5 6.4,2.1 7.5,2 C7.7,2.5 8.4,3.1 8.7,3.5 C9.2,4.3 9.3,4.8 10,4.8 C10.2,4.8 12,4.8 13,4.5 C13.6,5.5 14,6.7 14,8 C14,11.3 11.3,14 8,14 Z" id="Shape"></path>
                </g>
            </g>
        </g>
    </g>
</svg>